<?xml version="1.0" encoding="utf-8"?>
<!-- Generator: Adobe Illustrator 27.5.0, SVG Export Plug-In . SVG Version: 6.00 Build 0)  -->
<svg version="1.1" xmlns="http://www.w3.org/2000/svg" xmlns:xlink="http://www.w3.org/1999/xlink" x="0px" y="0px"
	 viewBox="0 0 500 500" style="enable-background:new 0 0 500 500;" xml:space="preserve">
<g id="Background_Complete">
	<g>
		<rect y="382.398" style="fill:#EBEBEB;" width="500" height="0.25"/>
		<rect x="288.404" y="396.342" style="fill:#EBEBEB;" width="33.122" height="0.25"/>
		<rect x="407.085" y="393.629" style="fill:#EBEBEB;" width="8.693" height="0.25"/>
		<rect x="327.667" y="389.208" style="fill:#EBEBEB;" width="68.919" height="0.25"/>
		<rect x="194.843" y="395.111" style="fill:#EBEBEB;" width="30.304" height="0.25"/>
		<rect x="166.717" y="395.111" style="fill:#EBEBEB;" width="19.222" height="0.25"/>
		<rect x="52.459" y="390.888" style="fill:#EBEBEB;" width="46.838" height="0.25"/>
		<path style="fill:#EBEBEB;" d="M237.014,337.8H43.915c-3.147,0-5.708-2.561-5.708-5.708V60.66c0-3.147,2.561-5.708,5.708-5.708
			h193.099c3.146,0,5.707,2.561,5.707,5.708v271.432C242.721,335.239,240.16,337.8,237.014,337.8z M43.915,55.203
			c-3.01,0-5.458,2.448-5.458,5.458v271.432c0,3.01,2.448,5.458,5.458,5.458h193.099c3.009,0,5.457-2.448,5.457-5.458V60.66
			c0-3.009-2.448-5.458-5.457-5.458H43.915z"/>
		<path style="fill:#EBEBEB;" d="M453.31,337.8H260.212c-3.147,0-5.707-2.561-5.707-5.708V60.66c0-3.147,2.561-5.708,5.707-5.708
			H453.31c3.148,0,5.708,2.561,5.708,5.708v271.432C459.019,335.239,456.458,337.8,453.31,337.8z M260.212,55.203
			c-3.009,0-5.457,2.448-5.457,5.458v271.432c0,3.01,2.448,5.458,5.457,5.458H453.31c3.01,0,5.458-2.448,5.458-5.458V60.66
			c0-3.009-2.448-5.458-5.458-5.458H260.212z"/>
	</g>
	<g>
		<g>
			<g>
				<path style="fill:#F5F5F5;" d="M447.466,79.824c0.108-1.957-1.405-3.558-3.362-3.558H290.754c-1.957,0-3.646,1.601-3.754,3.558
					l-0.63,11.454h160.466L447.466,79.824z"/>
				<path style="fill:#FFFFFF;" d="M418.329,86.696c-0.782,0-1.502-0.305-2.027-0.859c-0.525-0.555-0.791-1.293-0.749-2.078
					c0.089-1.605,1.467-2.911,3.072-2.911c0.783,0,1.503,0.305,2.028,0.86c0.525,0.555,0.791,1.293,0.748,2.077
					C421.313,85.39,419.935,86.696,418.329,86.696z M418.625,81.314c-1.361,0-2.53,1.108-2.605,2.47
					c-0.036,0.655,0.185,1.27,0.622,1.731c0.435,0.46,1.034,0.713,1.688,0.713c1.361,0,2.53-1.108,2.605-2.47l0.233,0.013
					l-0.233-0.013c0.036-0.655-0.184-1.269-0.62-1.73C419.878,81.568,419.278,81.314,418.625,81.314z"/>
				<path style="fill:#FFFFFF;" d="M427.863,86.696c-0.783,0-1.503-0.305-2.028-0.86c-0.525-0.555-0.791-1.293-0.748-2.077
					c0.089-1.605,1.467-2.911,3.072-2.911c0.782,0,1.502,0.305,2.027,0.859c0.525,0.555,0.791,1.293,0.749,2.078v0
					C430.847,85.39,429.469,86.696,427.863,86.696z M428.159,81.314c-1.361,0-2.53,1.108-2.605,2.47
					c-0.036,0.655,0.184,1.269,0.62,1.73c0.437,0.46,1.036,0.714,1.69,0.714c1.361,0,2.53-1.108,2.605-2.47l0,0
					c0.036-0.655-0.184-1.27-0.622-1.731C429.411,81.568,428.813,81.314,428.159,81.314z"/>
				<path style="fill:#FFFFFF;" d="M437.397,86.696c-0.782,0-1.502-0.305-2.027-0.86c-0.525-0.555-0.791-1.293-0.748-2.077
					c0.089-1.605,1.467-2.911,3.072-2.911c0.782,0,1.502,0.305,2.027,0.86c0.525,0.556,0.791,1.293,0.748,2.077
					C440.38,85.39,439.002,86.696,437.397,86.696z M437.693,81.314c-1.361,0-2.53,1.108-2.605,2.47
					c-0.036,0.655,0.184,1.269,0.621,1.731c0.435,0.46,1.034,0.714,1.688,0.714c1.361,0,2.53-1.108,2.605-2.47l0.233,0.013
					l-0.233-0.013c0.036-0.655-0.184-1.269-0.621-1.731C438.945,81.568,438.347,81.314,437.693,81.314z"/>
				<path style="fill:#E0E0E0;" d="M438.035,186.501H284.686c-1.957,0-3.47-1.601-3.362-3.558l5.046-91.664h160.466l-5.046,91.664
					C441.682,184.899,439.992,186.501,438.035,186.501z"/>
			</g>
			<g>
				<path style="fill:#EBEBEB;" d="M407.668,103.864c0.108-1.957-1.405-3.558-3.362-3.558H250.956c-1.957,0-3.647,1.601-3.754,3.558
					l-0.63,11.455h160.466L407.668,103.864z"/>
				<path style="fill:#FFFFFF;" d="M378.518,110.736c1.612,0,2.995-1.312,3.084-2.924c0.089-1.613-1.15-2.924-2.762-2.924
					s-2.996,1.312-3.085,2.924C375.667,109.424,376.906,110.736,378.518,110.736z"/>
				<path style="fill:#FFFFFF;" d="M388.052,110.736c1.612,0,2.996-1.312,3.085-2.924c0.089-1.613-1.151-2.924-2.763-2.924
					s-2.995,1.312-3.084,2.924C385.201,109.424,386.439,110.736,388.052,110.736z"/>
				<path style="fill:#FFFFFF;" d="M397.586,110.736c1.612,0,2.996-1.312,3.085-2.924c0.089-1.613-1.151-2.924-2.763-2.924
					c-1.612,0-2.995,1.312-3.084,2.924C394.735,109.424,395.973,110.736,397.586,110.736z"/>
				<path style="fill:#FAFAFA;" d="M397.242,228.618H243.893c-1.957,0-3.47-1.601-3.362-3.558l6.041-109.741h160.466l-6.041,109.741
					C400.888,227.016,399.199,228.618,397.242,228.618z"/>
			</g>
		</g>
		<g>
			<g>
				<g>
					<path style="fill:#E6E6E6;" d="M67.072,232.85c0.125-2.266,2.081-4.12,4.347-4.12h128.339c2.266,0,4.018,1.854,3.893,4.12
						l-0.73,13.262H66.342L67.072,232.85z"/>
					<path style="fill:#FFFFFF;" d="M97.016,237.421c-0.095,1.72,1.223,3.115,2.944,3.115s3.192-1.395,3.287-3.115
						c0.095-1.721-1.223-3.115-2.944-3.115C98.582,234.306,97.111,235.701,97.016,237.421z"/>
					<path style="fill:#FFFFFF;" d="M85.978,237.421c-0.095,1.72,1.223,3.115,2.944,3.115c1.721,0,3.192-1.395,3.287-3.115
						c0.095-1.721-1.223-3.115-2.944-3.115C87.544,234.306,86.073,235.701,85.978,237.421z"/>
					<path style="fill:#FFFFFF;" d="M74.94,237.421c-0.095,1.72,1.223,3.115,2.944,3.115s3.192-1.395,3.287-3.115
						c0.095-1.721-1.223-3.115-2.944-3.115C76.506,234.306,75.035,235.701,74.94,237.421z"/>
					<path style="fill:#F0F0F0;" d="M193.884,335.431H65.545c-2.266,0-4.018-1.854-3.893-4.12l4.69-85.199H202.92l-4.69,85.199
						C198.105,333.577,196.15,335.431,193.884,335.431z"/>
				</g>
				<g>
					<path style="fill:#F0F0F0;" d="M54.929,264.039c0.125-2.266,2.081-4.12,4.347-4.12h128.339c2.266,0,4.018,1.854,3.893,4.12
						l-0.73,13.262H54.199L54.929,264.039z"/>
					<path style="fill:#E6E6E6;" d="M84.873,268.61c-0.095,1.721,1.223,3.115,2.944,3.115s3.192-1.395,3.287-3.115
						c0.095-1.72-1.223-3.115-2.944-3.115C86.44,265.495,84.968,266.89,84.873,268.61z"/>
					<path style="fill:#E6E6E6;" d="M73.835,268.61c-0.095,1.721,1.223,3.115,2.944,3.115s3.192-1.395,3.287-3.115
						c0.095-1.72-1.223-3.115-2.944-3.115C75.401,265.495,73.93,266.89,73.835,268.61z"/>
					<path style="fill:#E6E6E6;" d="M62.797,268.61c-0.095,1.721,1.223,3.115,2.944,3.115c1.721,0,3.192-1.395,3.287-3.115
						c0.095-1.72-1.223-3.115-2.944-3.115C64.363,265.495,62.892,266.89,62.797,268.61z"/>
					<path style="fill:#FAFAFA;" d="M181.741,366.621H53.402c-2.266,0-4.018-1.854-3.893-4.12l4.69-85.199h136.578l-4.69,85.199
						C185.963,364.767,184.007,366.621,181.741,366.621z"/>
				</g>
			</g>
			<g>
				<path style="fill:#E6E6E6;" d="M106.453,333.963h59.407c0.714,0,1.266,0.584,1.226,1.298l-0.537,9.758
					c-0.039,0.714-0.655,1.298-1.369,1.298h-59.407c-0.714,0-1.266-0.584-1.226-1.298l0.537-9.758
					C105.124,334.547,105.74,333.963,106.453,333.963z"/>
				<path style="fill:#F0F0F0;" d="M63.474,313.017l103.509,0.651c0.714,0.003,1.263,0.589,1.221,1.303l-0.577,9.758
					c-0.042,0.714-0.661,1.295-1.374,1.292l-103.509-0.651c-0.713-0.003-1.263-0.589-1.221-1.303l0.577-9.758
					C62.142,313.596,62.76,313.014,63.474,313.017z"/>
				<path style="fill:#F0F0F0;" d="M87.284,292.722h80.847c0.714,0,1.266,0.584,1.226,1.298l-0.537,9.758
					c-0.039,0.714-0.655,1.298-1.369,1.298H86.604c-0.714,0-1.265-0.584-1.226-1.298l0.537-9.758
					C85.954,293.306,86.57,292.722,87.284,292.722z"/>
			</g>
		</g>
		<g>
			<path style="fill:#E6E6E6;" d="M347.039,293.413h86.505c0.762,0,1.352,0.624,1.31,1.386l-0.574,10.423
				c-0.042,0.762-0.7,1.386-1.462,1.386h-86.504c-0.762,0-1.352-0.624-1.31-1.386l0.574-10.423
				C345.619,294.037,346.277,293.413,347.039,293.413z"/>
			<path style="fill:#F0F0F0;" d="M376.387,271.04l58.356,0.696c0.762,0.003,1.349,0.629,1.304,1.392l-0.616,10.423
				c-0.045,0.762-0.705,1.383-1.468,1.38l-58.356-0.696c-0.762-0.003-1.349-0.629-1.304-1.392l0.616-10.423
				C374.964,271.658,375.625,271.037,376.387,271.04z"/>
			<path style="fill:#F0F0F0;" d="M362.461,249.363h73.507c0.762,0,1.352,0.624,1.31,1.386l-0.574,10.423
				c-0.042,0.762-0.7,1.386-1.462,1.386h-73.507c-0.762,0-1.352-0.624-1.31-1.386l0.574-10.423
				C361.041,249.986,361.699,249.363,362.461,249.363z"/>
		</g>
		<g>
			<path style="fill:#F0F0F0;" d="M87.235,91.977c-0.2,3.641-1.662,5.651-4.034,5.651c-2.093,0-3.402-1.961-3.24-5.503
				c0.198-3.592,1.856-5.569,4.031-5.569C86.248,86.556,87.423,88.566,87.235,91.977z M81.41,92.142
				c-0.153,2.785,0.615,4.366,1.934,4.366c1.482,0,2.286-1.73,2.437-4.465c0.145-2.636-0.434-4.366-1.934-4.366
				C82.579,87.677,81.571,89.226,81.41,92.142z"/>
			<path style="fill:#F0F0F0;" d="M91.935,88.089h-0.032l-1.917,1.005l-0.22-1.104l2.409-1.252h1.236l-0.59,10.71H91.42
				L91.935,88.089z"/>
			<path style="fill:#F0F0F0;" d="M104.148,91.977c-0.201,3.641-1.662,5.651-4.034,5.651c-2.093,0-3.402-1.961-3.24-5.503
				c0.198-3.592,1.856-5.569,4.031-5.569C103.161,86.556,104.336,88.566,104.148,91.977z M98.324,92.142
				c-0.153,2.785,0.617,4.366,1.934,4.366c1.482,0,2.286-1.73,2.437-4.465c0.145-2.636-0.435-4.366-1.934-4.366
				C99.492,87.677,98.484,89.226,98.324,92.142z"/>
			<path style="fill:#F0F0F0;" d="M112.606,91.977c-0.201,3.641-1.662,5.651-4.034,5.651c-2.093,0-3.402-1.961-3.24-5.503
				c0.198-3.592,1.856-5.569,4.031-5.569C111.619,86.556,112.794,88.566,112.606,91.977z M106.781,92.142
				c-0.153,2.785,0.617,4.366,1.934,4.366c1.482,0,2.286-1.73,2.437-4.465c0.145-2.636-0.435-4.366-1.934-4.366
				C107.95,87.677,106.941,89.226,106.781,92.142z"/>
			<path style="fill:#F0F0F0;" d="M121.062,91.977c-0.2,3.641-1.662,5.651-4.034,5.651c-2.093,0-3.402-1.961-3.24-5.503
				c0.198-3.592,1.856-5.569,4.031-5.569C120.075,86.556,121.25,88.566,121.062,91.977z M115.237,92.142
				c-0.153,2.785,0.616,4.366,1.934,4.366c1.482,0,2.286-1.73,2.437-4.465c0.145-2.636-0.435-4.366-1.934-4.366
				C116.406,87.677,115.397,89.226,115.237,92.142z"/>
			<path style="fill:#F0F0F0;" d="M125.762,88.089h-0.032l-1.918,1.005l-0.22-1.104l2.409-1.252h1.236l-0.59,10.71h-1.401
				L125.762,88.089z"/>
			<path style="fill:#F0F0F0;" d="M137.975,91.977c-0.2,3.641-1.662,5.651-4.034,5.651c-2.093,0-3.402-1.961-3.24-5.503
				c0.198-3.592,1.856-5.569,4.031-5.569C136.988,86.556,138.163,88.566,137.975,91.977z M132.15,92.142
				c-0.153,2.785,0.617,4.366,1.934,4.366c1.483,0,2.286-1.73,2.437-4.465c0.145-2.636-0.434-4.366-1.934-4.366
				C133.319,87.677,132.311,89.226,132.15,92.142z"/>
			<path style="fill:#F0F0F0;" d="M142.676,88.089h-0.032l-1.917,1.005l-0.22-1.104l2.409-1.252h1.236l-0.59,10.71h-1.401
				L142.676,88.089z"/>
			<path style="fill:#F0F0F0;" d="M151.133,88.089h-0.032l-1.917,1.005l-0.22-1.104l2.409-1.252h1.236l-0.59,10.71h-1.401
				L151.133,88.089z"/>
			<path style="fill:#F0F0F0;" d="M163.346,91.977c-0.201,3.641-1.662,5.651-4.034,5.651c-2.093,0-3.402-1.961-3.24-5.503
				c0.198-3.592,1.856-5.569,4.031-5.569C162.359,86.556,163.534,88.566,163.346,91.977z M157.521,92.142
				c-0.153,2.785,0.616,4.366,1.934,4.366c1.482,0,2.286-1.73,2.437-4.465c0.145-2.636-0.435-4.366-1.934-4.366
				C158.69,87.677,157.682,89.226,157.521,92.142z"/>
			<path style="fill:#F0F0F0;" d="M168.046,88.089h-0.032l-1.917,1.005l-0.22-1.104l2.409-1.252h1.236l-0.59,10.71h-1.401
				L168.046,88.089z"/>
			<path style="fill:#F0F0F0;" d="M180.26,91.977c-0.2,3.641-1.662,5.651-4.034,5.651c-2.093,0-3.402-1.961-3.24-5.503
				c0.198-3.592,1.856-5.569,4.031-5.569C179.273,86.556,180.447,88.566,180.26,91.977z M174.435,92.142
				c-0.153,2.785,0.617,4.366,1.934,4.366c1.482,0,2.286-1.73,2.437-4.465c0.145-2.636-0.434-4.366-1.934-4.366
				C175.604,87.677,174.595,89.226,174.435,92.142z"/>
			<path style="fill:#F0F0F0;" d="M82.389,107.871h-0.032l-1.917,1.005l-0.22-1.104l2.409-1.252h1.236l-0.59,10.71h-1.401
				L82.389,107.871z"/>
			<path style="fill:#F0F0F0;" d="M90.846,107.871h-0.032l-1.918,1.005l-0.22-1.104l2.409-1.252h1.236l-0.59,10.71h-1.401
				L90.846,107.871z"/>
			<path style="fill:#F0F0F0;" d="M99.302,107.871H99.27l-1.918,1.005l-0.22-1.104l2.409-1.252h1.236l-0.59,10.71h-1.401
				L99.302,107.871z"/>
			<path style="fill:#F0F0F0;" d="M111.517,111.76c-0.2,3.641-1.662,5.651-4.034,5.651c-2.093,0-3.402-1.961-3.24-5.503
				c0.198-3.592,1.856-5.569,4.031-5.569C110.53,106.339,111.705,108.349,111.517,111.76z M105.692,111.924
				c-0.153,2.785,0.617,4.366,1.934,4.366c1.483,0,2.286-1.73,2.437-4.465c0.145-2.636-0.434-4.366-1.934-4.366
				C106.861,107.459,105.853,109.008,105.692,111.924z"/>
			<path style="fill:#F0F0F0;" d="M116.216,107.871h-0.032l-1.917,1.005l-0.22-1.104l2.409-1.252h1.236l-0.59,10.71h-1.401
				L116.216,107.871z"/>
			<path style="fill:#F0F0F0;" d="M128.43,111.76c-0.201,3.641-1.662,5.651-4.034,5.651c-2.093,0-3.402-1.961-3.24-5.503
				c0.198-3.592,1.856-5.569,4.031-5.569C127.443,106.339,128.618,108.349,128.43,111.76z M122.605,111.924
				c-0.153,2.785,0.616,4.366,1.934,4.366c1.482,0,2.286-1.73,2.437-4.465c0.145-2.636-0.435-4.366-1.934-4.366
				C123.774,107.459,122.766,109.008,122.605,111.924z"/>
			<path style="fill:#F0F0F0;" d="M136.886,111.76c-0.2,3.641-1.662,5.651-4.034,5.651c-2.093,0-3.402-1.961-3.24-5.503
				c0.198-3.592,1.856-5.569,4.031-5.569C135.9,106.339,137.074,108.349,136.886,111.76z M131.061,111.924
				c-0.153,2.785,0.617,4.366,1.934,4.366c1.482,0,2.286-1.73,2.437-4.465c0.145-2.636-0.434-4.366-1.934-4.366
				C132.23,107.459,131.222,109.008,131.061,111.924z"/>
			<path style="fill:#F0F0F0;" d="M141.587,107.871h-0.032l-1.918,1.005l-0.22-1.104l2.409-1.252h1.236l-0.59,10.71h-1.401
				L141.587,107.871z"/>
			<path style="fill:#F0F0F0;" d="M150.044,107.871h-0.032l-1.917,1.005l-0.22-1.104l2.409-1.252h1.236l-0.59,10.71h-1.401
				L150.044,107.871z"/>
			<path style="fill:#F0F0F0;" d="M158.5,107.871h-0.032l-1.917,1.005l-0.22-1.104l2.409-1.252h1.236l-0.589,10.71h-1.401
				L158.5,107.871z"/>
			<path style="fill:#F0F0F0;" d="M170.715,111.76c-0.201,3.641-1.662,5.651-4.034,5.651c-2.093,0-3.402-1.961-3.24-5.503
				c0.198-3.592,1.856-5.569,4.031-5.569C169.728,106.339,170.902,108.349,170.715,111.76z M164.89,111.924
				c-0.153,2.785,0.616,4.366,1.934,4.366c1.482,0,2.286-1.73,2.437-4.465c0.145-2.636-0.434-4.366-1.934-4.366
				C166.059,107.459,165.05,109.008,164.89,111.924z"/>
			<path style="fill:#F0F0F0;" d="M175.414,107.871h-0.032l-1.917,1.005l-0.22-1.104l2.409-1.252h1.236l-0.59,10.71h-1.401
				L175.414,107.871z"/>
			<path style="fill:#F0F0F0;" d="M85.057,131.542c-0.2,3.641-1.662,5.651-4.034,5.651c-2.093,0-3.402-1.961-3.24-5.503
				c0.198-3.592,1.856-5.569,4.031-5.569C84.07,126.121,85.245,128.132,85.057,131.542z M79.232,131.707
				c-0.153,2.785,0.616,4.366,1.934,4.366c1.483,0,2.286-1.73,2.437-4.465c0.145-2.636-0.435-4.366-1.934-4.366
				C80.401,127.242,79.393,128.791,79.232,131.707z"/>
			<path style="fill:#F0F0F0;" d="M89.757,127.654h-0.032l-1.917,1.005l-0.22-1.104l2.409-1.252h1.236l-0.59,10.71h-1.401
				L89.757,127.654z"/>
			<path style="fill:#F0F0F0;" d="M101.97,131.542c-0.2,3.641-1.662,5.651-4.034,5.651c-2.093,0-3.402-1.961-3.24-5.503
				c0.198-3.592,1.856-5.569,4.031-5.569C100.984,126.121,102.158,128.132,101.97,131.542z M96.146,131.707
				c-0.153,2.785,0.617,4.366,1.934,4.366c1.482,0,2.286-1.73,2.437-4.465c0.145-2.636-0.435-4.366-1.934-4.366
				C97.314,127.242,96.306,128.791,96.146,131.707z"/>
			<path style="fill:#F0F0F0;" d="M110.428,131.542c-0.2,3.641-1.662,5.651-4.034,5.651c-2.093,0-3.402-1.961-3.24-5.503
				c0.198-3.592,1.856-5.569,4.031-5.569C109.441,126.121,110.616,128.132,110.428,131.542z M104.603,131.707
				c-0.153,2.785,0.617,4.366,1.934,4.366c1.482,0,2.286-1.73,2.437-4.465c0.145-2.636-0.435-4.366-1.934-4.366
				C105.772,127.242,104.763,128.791,104.603,131.707z"/>
			<path style="fill:#F0F0F0;" d="M115.127,127.654h-0.032l-1.917,1.005l-0.22-1.104l2.409-1.252h1.236l-0.59,10.71h-1.401
				L115.127,127.654z"/>
			<path style="fill:#F0F0F0;" d="M127.341,131.542c-0.2,3.641-1.662,5.651-4.034,5.651c-2.093,0-3.402-1.961-3.24-5.503
				c0.198-3.592,1.856-5.569,4.031-5.569C126.354,126.121,127.529,128.132,127.341,131.542z M121.516,131.707
				c-0.153,2.785,0.616,4.366,1.934,4.366c1.482,0,2.286-1.73,2.437-4.465c0.145-2.636-0.434-4.366-1.934-4.366
				C122.685,127.242,121.677,128.791,121.516,131.707z"/>
			<path style="fill:#F0F0F0;" d="M132.04,127.654h-0.032l-1.917,1.005l-0.22-1.104l2.409-1.252h1.236l-0.59,10.71h-1.401
				L132.04,127.654z"/>
			<path style="fill:#F0F0F0;" d="M144.255,131.542c-0.201,3.641-1.662,5.651-4.034,5.651c-2.093,0-3.402-1.961-3.24-5.503
				c0.198-3.592,1.856-5.569,4.031-5.569C143.268,126.121,144.443,128.132,144.255,131.542z M138.43,131.707
				c-0.153,2.785,0.617,4.366,1.934,4.366c1.482,0,2.286-1.73,2.437-4.465c0.145-2.636-0.435-4.366-1.934-4.366
				C139.599,127.242,138.59,128.791,138.43,131.707z"/>
			<path style="fill:#F0F0F0;" d="M152.712,131.542c-0.201,3.641-1.662,5.651-4.034,5.651c-2.093,0-3.402-1.961-3.24-5.503
				c0.198-3.592,1.856-5.569,4.031-5.569C151.725,126.121,152.9,128.132,152.712,131.542z M146.887,131.707
				c-0.153,2.785,0.617,4.366,1.934,4.366c1.482,0,2.286-1.73,2.437-4.465c0.145-2.636-0.434-4.366-1.934-4.366
				C148.056,127.242,147.048,128.791,146.887,131.707z"/>
			<path style="fill:#F0F0F0;" d="M157.411,127.654h-0.032l-1.917,1.005l-0.22-1.104l2.409-1.252h1.236l-0.589,10.71h-1.401
				L157.411,127.654z"/>
			<path style="fill:#F0F0F0;" d="M169.626,131.542c-0.2,3.641-1.662,5.651-4.034,5.651c-2.093,0-3.402-1.961-3.24-5.503
				c0.198-3.592,1.856-5.569,4.031-5.569C168.639,126.121,169.813,128.132,169.626,131.542z M163.801,131.707
				c-0.153,2.785,0.616,4.366,1.934,4.366c1.482,0,2.286-1.73,2.437-4.465c0.145-2.636-0.435-4.366-1.934-4.366
				C164.969,127.242,163.961,128.791,163.801,131.707z"/>
			<path style="fill:#F0F0F0;" d="M178.082,131.542c-0.201,3.641-1.662,5.651-4.034,5.651c-2.093,0-3.402-1.961-3.24-5.503
				c0.198-3.592,1.856-5.569,4.031-5.569C177.095,126.121,178.269,128.132,178.082,131.542z M172.257,131.707
				c-0.153,2.785,0.617,4.366,1.934,4.366c1.482,0,2.286-1.73,2.437-4.465c0.145-2.636-0.435-4.366-1.934-4.366
				C173.426,127.242,172.417,128.791,172.257,131.707z"/>
			<path style="fill:#F0F0F0;" d="M80.211,147.436h-0.032l-1.918,1.005l-0.22-1.104l2.409-1.252h1.236l-0.59,10.71h-1.401
				L80.211,147.436z"/>
			<path style="fill:#F0F0F0;" d="M92.425,151.325c-0.2,3.641-1.662,5.652-4.034,5.652c-2.093,0-3.402-1.961-3.24-5.503
				c0.198-3.592,1.856-5.569,4.031-5.569C91.439,145.904,92.613,147.914,92.425,151.325z M86.601,151.49
				c-0.153,2.785,0.616,4.366,1.934,4.366c1.483,0,2.286-1.73,2.437-4.465c0.145-2.636-0.434-4.366-1.934-4.366
				C87.769,147.025,86.761,148.573,86.601,151.49z"/>
			<path style="fill:#F0F0F0;" d="M100.882,151.325c-0.201,3.641-1.662,5.652-4.034,5.652c-2.093,0-3.402-1.961-3.24-5.503
				c0.198-3.592,1.856-5.569,4.031-5.569C99.895,145.904,101.069,147.914,100.882,151.325z M95.057,151.49
				c-0.153,2.785,0.617,4.366,1.934,4.366c1.482,0,2.286-1.73,2.437-4.465c0.145-2.636-0.434-4.366-1.934-4.366
				C96.225,147.025,95.217,148.573,95.057,151.49z"/>
			<path style="fill:#F0F0F0;" d="M105.582,147.436h-0.032l-1.917,1.005l-0.22-1.104l2.409-1.252h1.236l-0.59,10.71h-1.401
				L105.582,147.436z"/>
			<path style="fill:#F0F0F0;" d="M117.795,151.325c-0.2,3.641-1.662,5.652-4.034,5.652c-2.093,0-3.402-1.961-3.24-5.503
				c0.198-3.592,1.856-5.569,4.031-5.569C116.808,145.904,117.983,147.914,117.795,151.325z M111.97,151.49
				c-0.153,2.785,0.616,4.366,1.934,4.366c1.482,0,2.286-1.73,2.437-4.465c0.145-2.636-0.434-4.366-1.934-4.366
				C113.139,147.025,112.131,148.573,111.97,151.49z"/>
			<path style="fill:#F0F0F0;" d="M122.495,147.436h-0.032l-1.917,1.005l-0.22-1.104l2.409-1.252h1.236l-0.59,10.71h-1.401
				L122.495,147.436z"/>
			<path style="fill:#F0F0F0;" d="M134.708,151.325c-0.201,3.641-1.662,5.652-4.034,5.652c-2.093,0-3.402-1.961-3.24-5.503
				c0.198-3.592,1.856-5.569,4.031-5.569C133.721,145.904,134.896,147.914,134.708,151.325z M128.883,151.49
				c-0.153,2.785,0.617,4.366,1.934,4.366c1.482,0,2.286-1.73,2.437-4.465c0.145-2.636-0.434-4.366-1.934-4.366
				C130.052,147.025,129.044,148.573,128.883,151.49z"/>
			<path style="fill:#F0F0F0;" d="M139.409,147.436h-0.032l-1.917,1.005l-0.22-1.104l2.409-1.252h1.236l-0.589,10.71h-1.401
				L139.409,147.436z"/>
			<path style="fill:#F0F0F0;" d="M147.866,147.436h-0.032l-1.917,1.005l-0.22-1.104l2.409-1.252h1.236l-0.589,10.71h-1.401
				L147.866,147.436z"/>
			<path style="fill:#F0F0F0;" d="M156.322,147.436h-0.032l-1.917,1.005l-0.22-1.104l2.409-1.252h1.236l-0.59,10.71h-1.401
				L156.322,147.436z"/>
			<path style="fill:#F0F0F0;" d="M168.537,151.325c-0.2,3.641-1.662,5.652-4.034,5.652c-2.093,0-3.402-1.961-3.24-5.503
				c0.198-3.592,1.856-5.569,4.031-5.569C167.55,145.904,168.724,147.914,168.537,151.325z M162.712,151.49
				c-0.153,2.785,0.615,4.366,1.934,4.366c1.482,0,2.286-1.73,2.437-4.465c0.145-2.636-0.434-4.366-1.934-4.366
				C163.881,147.025,162.872,148.573,162.712,151.49z"/>
			<path style="fill:#F0F0F0;" d="M176.993,151.325c-0.2,3.641-1.662,5.652-4.034,5.652c-2.093,0-3.402-1.961-3.24-5.503
				c0.198-3.592,1.856-5.569,4.031-5.569C176.006,145.904,177.18,147.914,176.993,151.325z M171.168,151.49
				c-0.153,2.785,0.617,4.366,1.934,4.366c1.482,0,2.286-1.73,2.437-4.465c0.145-2.636-0.435-4.366-1.934-4.366
				C172.337,147.025,171.328,148.573,171.168,151.49z"/>
			<path style="fill:#F0F0F0;" d="M82.879,171.107c-0.2,3.641-1.662,5.651-4.034,5.651c-2.093,0-3.402-1.961-3.24-5.503
				c0.198-3.592,1.856-5.569,4.031-5.569C81.892,165.687,83.067,167.697,82.879,171.107z M77.054,171.272
				c-0.153,2.785,0.616,4.366,1.934,4.366c1.482,0,2.286-1.73,2.437-4.465c0.145-2.636-0.435-4.366-1.934-4.366
				C78.223,166.807,77.215,168.356,77.054,171.272z"/>
			<path style="fill:#F0F0F0;" d="M91.336,171.107c-0.2,3.641-1.662,5.651-4.034,5.651c-2.093,0-3.402-1.961-3.24-5.503
				c0.198-3.592,1.856-5.569,4.031-5.569C90.35,165.687,91.524,167.697,91.336,171.107z M85.512,171.272
				c-0.153,2.785,0.616,4.366,1.934,4.366c1.482,0,2.286-1.73,2.437-4.465c0.145-2.636-0.435-4.366-1.934-4.366
				C86.68,166.807,85.672,168.356,85.512,171.272z"/>
			<path style="fill:#F0F0F0;" d="M99.793,171.107c-0.2,3.641-1.662,5.651-4.034,5.651c-2.093,0-3.402-1.961-3.24-5.503
				c0.198-3.592,1.856-5.569,4.031-5.569C98.806,165.687,99.98,167.697,99.793,171.107z M93.968,171.272
				c-0.153,2.785,0.617,4.366,1.934,4.366c1.482,0,2.286-1.73,2.437-4.465c0.145-2.636-0.435-4.366-1.934-4.366
				C95.136,166.807,94.128,168.356,93.968,171.272z"/>
			<path style="fill:#F0F0F0;" d="M104.493,167.219h-0.032l-1.917,1.005l-0.22-1.104l2.409-1.252h1.236l-0.589,10.71h-1.401
				L104.493,167.219z"/>
			<path style="fill:#F0F0F0;" d="M116.706,171.107c-0.201,3.641-1.662,5.651-4.034,5.651c-2.093,0-3.402-1.961-3.24-5.503
				c0.198-3.592,1.856-5.569,4.031-5.569C115.719,165.687,116.894,167.697,116.706,171.107z M110.881,171.272
				c-0.153,2.785,0.616,4.366,1.934,4.366c1.482,0,2.286-1.73,2.437-4.465c0.145-2.636-0.435-4.366-1.934-4.366
				C112.05,166.807,111.042,168.356,110.881,171.272z"/>
			<path style="fill:#F0F0F0;" d="M121.406,167.219h-0.032l-1.918,1.005l-0.22-1.104l2.409-1.252h1.236l-0.59,10.71h-1.401
				L121.406,167.219z"/>
			<path style="fill:#F0F0F0;" d="M133.619,171.107c-0.2,3.641-1.662,5.651-4.034,5.651c-2.093,0-3.402-1.961-3.24-5.503
				c0.198-3.592,1.856-5.569,4.031-5.569C132.633,165.687,133.807,167.697,133.619,171.107z M127.795,171.272
				c-0.153,2.785,0.617,4.366,1.934,4.366c1.482,0,2.286-1.73,2.437-4.465c0.145-2.636-0.434-4.366-1.934-4.366
				C128.963,166.807,127.955,168.356,127.795,171.272z"/>
			<path style="fill:#F0F0F0;" d="M138.32,167.219h-0.032l-1.917,1.005l-0.22-1.104l2.409-1.252h1.236l-0.589,10.71h-1.401
				L138.32,167.219z"/>
			<path style="fill:#F0F0F0;" d="M150.534,171.107c-0.2,3.641-1.662,5.651-4.034,5.651c-2.093,0-3.402-1.961-3.24-5.503
				c0.198-3.592,1.856-5.569,4.031-5.569C149.547,165.687,150.722,167.697,150.534,171.107z M144.709,171.272
				c-0.153,2.785,0.617,4.366,1.934,4.366c1.482,0,2.286-1.73,2.437-4.465c0.145-2.636-0.435-4.366-1.934-4.366
				C145.878,166.807,144.87,168.356,144.709,171.272z"/>
			<path style="fill:#F0F0F0;" d="M155.233,167.219h-0.032l-1.918,1.005l-0.22-1.104l2.409-1.252h1.236l-0.59,10.71h-1.401
				L155.233,167.219z"/>
			<path style="fill:#F0F0F0;" d="M167.448,171.107c-0.201,3.641-1.662,5.651-4.034,5.651c-2.093,0-3.402-1.961-3.24-5.503
				c0.198-3.592,1.856-5.569,4.031-5.569C166.461,165.687,167.635,167.697,167.448,171.107z M161.623,171.272
				c-0.153,2.785,0.616,4.366,1.934,4.366c1.482,0,2.286-1.73,2.437-4.465c0.145-2.636-0.435-4.366-1.934-4.366
				C162.792,166.807,161.783,168.356,161.623,171.272z"/>
			<path style="fill:#F0F0F0;" d="M175.904,171.107c-0.2,3.641-1.662,5.651-4.034,5.651c-2.093,0-3.402-1.961-3.24-5.503
				c0.198-3.592,1.856-5.569,4.031-5.569C174.917,165.687,176.092,167.697,175.904,171.107z M170.079,171.272
				c-0.153,2.785,0.617,4.366,1.934,4.366c1.482,0,2.286-1.73,2.437-4.465c0.145-2.636-0.434-4.366-1.934-4.366
				C171.248,166.807,170.239,168.356,170.079,171.272z"/>
			<path style="fill:#F0F0F0;" d="M78.033,187.002h-0.032l-1.917,1.005l-0.22-1.104l2.409-1.252h1.236l-0.59,10.71h-1.401
				L78.033,187.002z"/>
			<path style="fill:#F0F0F0;" d="M90.247,190.89c-0.201,3.641-1.662,5.651-4.034,5.651c-2.093,0-3.402-1.961-3.24-5.503
				c0.198-3.592,1.856-5.569,4.031-5.569C89.261,185.469,90.435,187.479,90.247,190.89z M84.423,191.055
				c-0.153,2.785,0.616,4.366,1.934,4.366c1.482,0,2.286-1.73,2.437-4.465c0.145-2.636-0.435-4.366-1.934-4.366
				C85.591,186.59,84.583,188.138,84.423,191.055z"/>
			<path style="fill:#F0F0F0;" d="M94.947,187.002h-0.032l-1.917,1.005l-0.22-1.104l2.409-1.252h1.236l-0.59,10.71h-1.401
				L94.947,187.002z"/>
			<path style="fill:#F0F0F0;" d="M107.161,190.89c-0.2,3.641-1.662,5.651-4.034,5.651c-2.093,0-3.402-1.961-3.24-5.503
				c0.198-3.592,1.856-5.569,4.031-5.569C106.174,185.469,107.349,187.479,107.161,190.89z M101.336,191.055
				c-0.153,2.785,0.617,4.366,1.934,4.366c1.482,0,2.286-1.73,2.437-4.465c0.145-2.636-0.434-4.366-1.934-4.366
				C102.505,186.59,101.497,188.138,101.336,191.055z"/>
			<path style="fill:#F0F0F0;" d="M111.86,187.002h-0.032l-1.917,1.005l-0.22-1.104l2.409-1.252h1.236l-0.59,10.71h-1.401
				L111.86,187.002z"/>
			<path style="fill:#F0F0F0;" d="M124.074,190.89c-0.201,3.641-1.662,5.651-4.034,5.651c-2.093,0-3.402-1.961-3.24-5.503
				c0.198-3.592,1.856-5.569,4.031-5.569C123.088,185.469,124.262,187.479,124.074,190.89z M118.249,191.055
				c-0.153,2.785,0.616,4.366,1.934,4.366c1.482,0,2.286-1.73,2.437-4.465c0.145-2.636-0.435-4.366-1.934-4.366
				C119.418,186.59,118.41,188.138,118.249,191.055z"/>
			<path style="fill:#F0F0F0;" d="M128.773,187.002h-0.032l-1.917,1.005l-0.22-1.104l2.409-1.252h1.236l-0.59,10.71h-1.401
				L128.773,187.002z"/>
			<path style="fill:#F0F0F0;" d="M137.231,187.002h-0.032l-1.917,1.005l-0.22-1.104l2.409-1.252h1.236l-0.59,10.71h-1.401
				L137.231,187.002z"/>
			<path style="fill:#F0F0F0;" d="M149.445,190.89c-0.2,3.641-1.662,5.651-4.034,5.651c-2.093,0-3.402-1.961-3.24-5.503
				c0.198-3.592,1.856-5.569,4.031-5.569C148.458,185.469,149.633,187.479,149.445,190.89z M143.62,191.055
				c-0.153,2.785,0.617,4.366,1.934,4.366c1.482,0,2.286-1.73,2.437-4.465c0.145-2.636-0.434-4.366-1.934-4.366
				C144.789,186.59,143.781,188.138,143.62,191.055z"/>
			<path style="fill:#F0F0F0;" d="M157.901,190.89c-0.2,3.641-1.662,5.651-4.034,5.651c-2.093,0-3.402-1.961-3.24-5.503
				c0.198-3.592,1.856-5.569,4.031-5.569C156.914,185.469,158.089,187.479,157.901,190.89z M152.076,191.055
				c-0.153,2.785,0.616,4.366,1.934,4.366c1.482,0,2.286-1.73,2.437-4.465c0.145-2.636-0.435-4.366-1.934-4.366
				C153.245,186.59,152.237,188.138,152.076,191.055z"/>
			<path style="fill:#F0F0F0;" d="M162.602,187.002h-0.032l-1.917,1.005l-0.22-1.104l2.409-1.252h1.236l-0.589,10.71h-1.401
				L162.602,187.002z"/>
			<path style="fill:#F0F0F0;" d="M174.815,190.89c-0.2,3.641-1.662,5.651-4.034,5.651c-2.093,0-3.402-1.961-3.24-5.503
				c0.198-3.592,1.856-5.569,4.031-5.569C173.828,185.469,175.003,187.479,174.815,190.89z M168.99,191.055
				c-0.153,2.785,0.617,4.366,1.934,4.366c1.482,0,2.286-1.73,2.437-4.465c0.145-2.636-0.434-4.366-1.934-4.366
				C170.159,186.59,169.15,188.138,168.99,191.055z"/>
		</g>
		<g>
			<path style="fill:#F0F0F0;" d="M315.922,324.57c-0.101,1.828-0.835,2.838-2.026,2.838c-1.051,0-1.708-0.984-1.627-2.763
				c0.099-1.804,0.932-2.796,2.024-2.796C315.427,321.849,316.017,322.858,315.922,324.57z M312.997,324.653
				c-0.077,1.398,0.309,2.192,0.971,2.192c0.744,0,1.148-0.869,1.224-2.242c0.073-1.324-0.218-2.192-0.971-2.192
				C313.584,322.411,313.078,323.189,312.997,324.653z"/>
			<path style="fill:#F0F0F0;" d="M318.282,322.618h-0.016l-0.963,0.505l-0.11-0.554l1.21-0.629h0.62l-0.296,5.378h-0.703
				L318.282,322.618z"/>
			<path style="fill:#F0F0F0;" d="M324.415,324.57c-0.101,1.828-0.835,2.838-2.026,2.838c-1.051,0-1.708-0.984-1.627-2.763
				c0.099-1.804,0.932-2.796,2.024-2.796C323.919,321.849,324.509,322.858,324.415,324.57z M321.49,324.653
				c-0.077,1.398,0.31,2.192,0.971,2.192c0.744,0,1.148-0.869,1.224-2.242c0.073-1.324-0.218-2.192-0.971-2.192
				C322.077,322.411,321.571,323.189,321.49,324.653z"/>
			<path style="fill:#F0F0F0;" d="M328.662,324.57c-0.101,1.828-0.835,2.838-2.026,2.838c-1.051,0-1.708-0.984-1.627-2.763
				c0.099-1.804,0.932-2.796,2.024-2.796C328.166,321.849,328.756,322.858,328.662,324.57z M325.737,324.653
				c-0.077,1.398,0.31,2.192,0.971,2.192c0.744,0,1.148-0.869,1.224-2.242c0.073-1.324-0.218-2.192-0.971-2.192
				C326.324,322.411,325.818,323.189,325.737,324.653z"/>
			<path style="fill:#F0F0F0;" d="M331.021,322.618h-0.016l-0.963,0.505l-0.11-0.554l1.21-0.629h0.62l-0.296,5.378h-0.703
				L331.021,322.618z"/>
			<path style="fill:#F0F0F0;" d="M337.155,324.57c-0.101,1.828-0.835,2.838-2.026,2.838c-1.051,0-1.708-0.984-1.627-2.763
				c0.099-1.804,0.932-2.796,2.024-2.796C336.659,321.849,337.249,322.858,337.155,324.57z M334.23,324.653
				c-0.077,1.398,0.309,2.192,0.971,2.192c0.744,0,1.148-0.869,1.224-2.242c0.073-1.324-0.218-2.192-0.971-2.192
				C334.817,322.411,334.31,323.189,334.23,324.653z"/>
			<path style="fill:#F0F0F0;" d="M339.514,322.618h-0.016l-0.963,0.505l-0.11-0.554l1.21-0.629h0.62l-0.296,5.378h-0.703
				L339.514,322.618z"/>
			<path style="fill:#F0F0F0;" d="M345.647,324.57c-0.101,1.828-0.835,2.838-2.026,2.838c-1.051,0-1.708-0.984-1.627-2.763
				c0.099-1.804,0.932-2.796,2.024-2.796C345.152,321.849,345.742,322.858,345.647,324.57z M342.723,324.653
				c-0.077,1.398,0.31,2.192,0.971,2.192c0.744,0,1.148-0.869,1.224-2.242c0.073-1.324-0.218-2.192-0.971-2.192
				C343.309,322.411,342.803,323.189,342.723,324.653z"/>
			<path style="fill:#F0F0F0;" d="M349.894,324.57c-0.101,1.828-0.835,2.838-2.026,2.838c-1.051,0-1.708-0.984-1.627-2.763
				c0.099-1.804,0.932-2.796,2.024-2.796C349.398,321.849,349.988,322.858,349.894,324.57z M346.969,324.653
				c-0.077,1.398,0.31,2.192,0.971,2.192c0.744,0,1.148-0.869,1.224-2.242c0.073-1.324-0.218-2.192-0.971-2.192
				C347.556,322.411,347.05,323.189,346.969,324.653z"/>
			<path style="fill:#F0F0F0;" d="M352.254,322.618h-0.016l-0.963,0.505l-0.11-0.554l1.21-0.629h0.62l-0.296,5.378h-0.703
				L352.254,322.618z"/>
			<path style="fill:#F0F0F0;" d="M358.387,324.57c-0.101,1.828-0.835,2.838-2.026,2.838c-1.051,0-1.708-0.984-1.627-2.763
				c0.099-1.804,0.932-2.796,2.024-2.796C357.891,321.849,358.481,322.858,358.387,324.57z M355.462,324.653
				c-0.077,1.398,0.309,2.192,0.971,2.192c0.744,0,1.148-0.869,1.224-2.242c0.073-1.324-0.218-2.192-0.971-2.192
				C356.049,322.411,355.543,323.189,355.462,324.653z"/>
			<path style="fill:#F0F0F0;" d="M362.633,324.57c-0.101,1.828-0.835,2.838-2.026,2.838c-1.051,0-1.708-0.984-1.627-2.763
				c0.099-1.804,0.932-2.796,2.024-2.796C362.137,321.849,362.727,322.858,362.633,324.57z M359.708,324.653
				c-0.077,1.398,0.31,2.192,0.971,2.192c0.744,0,1.148-0.869,1.223-2.242c0.073-1.324-0.218-2.192-0.971-2.192
				C360.295,322.411,359.789,323.189,359.708,324.653z"/>
			<path style="fill:#F0F0F0;" d="M313.489,332.551h-0.016l-0.963,0.505l-0.11-0.554l1.209-0.629h0.621l-0.296,5.378h-0.703
				L313.489,332.551z"/>
			<path style="fill:#F0F0F0;" d="M319.622,334.504c-0.101,1.828-0.835,2.838-2.026,2.838c-1.051,0-1.708-0.985-1.627-2.763
				c0.099-1.803,0.932-2.796,2.024-2.796C319.127,331.782,319.716,332.791,319.622,334.504z M316.697,334.587
				c-0.077,1.398,0.309,2.193,0.971,2.193c0.744,0,1.148-0.869,1.223-2.242c0.073-1.324-0.218-2.192-0.971-2.192
				C317.284,332.345,316.778,333.122,316.697,334.587z"/>
			<path style="fill:#F0F0F0;" d="M323.868,334.504c-0.101,1.828-0.835,2.838-2.026,2.838c-1.051,0-1.708-0.985-1.627-2.763
				c0.099-1.803,0.932-2.796,2.024-2.796C323.373,331.782,323.962,332.791,323.868,334.504z M320.943,334.587
				c-0.077,1.398,0.31,2.193,0.971,2.193c0.744,0,1.148-0.869,1.224-2.242c0.073-1.324-0.218-2.192-0.971-2.192
				C321.53,332.345,321.024,333.122,320.943,334.587z"/>
			<path style="fill:#F0F0F0;" d="M326.228,332.551h-0.016l-0.963,0.505l-0.11-0.554l1.209-0.629h0.62l-0.296,5.378h-0.703
				L326.228,332.551z"/>
			<path style="fill:#F0F0F0;" d="M332.361,334.504c-0.101,1.828-0.835,2.838-2.026,2.838c-1.051,0-1.708-0.985-1.627-2.763
				c0.099-1.803,0.932-2.796,2.024-2.796C331.866,331.782,332.455,332.791,332.361,334.504z M329.436,334.587
				c-0.077,1.398,0.309,2.193,0.971,2.193c0.744,0,1.148-0.869,1.224-2.242c0.073-1.324-0.218-2.192-0.971-2.192
				C330.023,332.345,329.517,333.122,329.436,334.587z"/>
			<path style="fill:#F0F0F0;" d="M334.721,332.551h-0.016l-0.963,0.505l-0.11-0.554l1.21-0.629h0.62l-0.296,5.378h-0.703
				L334.721,332.551z"/>
			<path style="fill:#F0F0F0;" d="M340.854,334.504c-0.101,1.828-0.835,2.838-2.026,2.838c-1.051,0-1.708-0.985-1.627-2.763
				c0.099-1.803,0.932-2.796,2.024-2.796C340.358,331.782,340.948,332.791,340.854,334.504z M337.929,334.587
				c-0.077,1.398,0.31,2.193,0.971,2.193c0.744,0,1.148-0.869,1.224-2.242c0.073-1.324-0.218-2.192-0.971-2.192
				C338.516,332.345,338.01,333.122,337.929,334.587z"/>
			<path style="fill:#F0F0F0;" d="M343.214,332.551h-0.016l-0.963,0.505l-0.11-0.554l1.21-0.629h0.62l-0.296,5.378h-0.703
				L343.214,332.551z"/>
			<path style="fill:#F0F0F0;" d="M347.461,332.551h-0.016l-0.963,0.505l-0.11-0.554l1.209-0.629h0.62l-0.296,5.378h-0.703
				L347.461,332.551z"/>
			<path style="fill:#F0F0F0;" d="M351.707,332.551h-0.016l-0.963,0.505l-0.11-0.554l1.21-0.629h0.62l-0.296,5.378h-0.703
				L351.707,332.551z"/>
			<path style="fill:#F0F0F0;" d="M357.84,334.504c-0.101,1.828-0.835,2.838-2.026,2.838c-1.051,0-1.708-0.985-1.627-2.763
				c0.099-1.803,0.932-2.796,2.024-2.796C357.345,331.782,357.934,332.791,357.84,334.504z M354.915,334.587
				c-0.077,1.398,0.309,2.193,0.971,2.193c0.744,0,1.148-0.869,1.223-2.242c0.073-1.324-0.218-2.192-0.971-2.192
				C355.502,332.345,354.996,333.122,354.915,334.587z"/>
			<path style="fill:#F0F0F0;" d="M362.086,334.504c-0.101,1.828-0.835,2.838-2.026,2.838c-1.051,0-1.708-0.985-1.627-2.763
				c0.099-1.803,0.932-2.796,2.024-2.796C361.591,331.782,362.18,332.791,362.086,334.504z M359.161,334.587
				c-0.077,1.398,0.31,2.193,0.971,2.193c0.744,0,1.148-0.869,1.223-2.242c0.073-1.324-0.218-2.192-0.971-2.192
				C359.748,332.345,359.242,333.122,359.161,334.587z"/>
		</g>
	</g>
</g>
<g id="Background_Simple" style="display:none;">
	<g style="display:inline;">
		<path style="fill:#407BFF;" d="M296.134,161.375c-52.911,31.318-104.886-34.914-153.122-39.945
			c-59.029-6.157-97.87,52.521-73.045,104.67c21.287,44.716,65.307,37.345,103.124,56.006
			c51.643,25.484,78.49,71.862,141.297,78.045c121.347,11.945,132.049-161.626,91.254-246.005
			c-14.073-29.108-27.558-53.005-63.522-36.502C309.492,92.616,317.928,148.475,296.134,161.375z"/>
		<path style="opacity:0.9;fill:#FFFFFF;" d="M296.134,161.375c-52.911,31.318-104.886-34.914-153.122-39.945
			c-59.029-6.157-97.87,52.521-73.045,104.67c21.287,44.716,65.307,37.345,103.124,56.006
			c51.643,25.484,78.49,71.862,141.297,78.045c121.347,11.945,132.049-161.626,91.254-246.005
			c-14.073-29.108-27.558-53.005-63.522-36.502C309.492,92.616,317.928,148.475,296.134,161.375z"/>
	</g>
</g>
<g id="Shadow_1_">
	<ellipse id="_x3C_Path_x3E__66_" style="fill:#F5F5F5;" cx="250" cy="436.239" rx="193.889" ry="11.323"/>
</g>
<g id="Data">
	<g>
		<g>
			<g>
				<path style="fill:#407BFF;" d="M318.349,131.722c0.27-0.917,0.582-1.655,0.935-2.214c0.353-0.559,0.761-0.99,1.222-1.294
					c0.461-0.303,0.974-0.455,1.538-0.455c0.416,0,0.757,0.084,1.021,0.251c0.265,0.168,0.453,0.409,0.564,0.725
					c0.112,0.316,0.159,0.7,0.142,1.153c-0.017,0.453-0.139,1.064-0.365,1.833c-0.268,0.91-0.578,1.644-0.929,2.203
					c-0.352,0.559-0.758,0.991-1.22,1.296c-0.462,0.305-0.977,0.458-1.545,0.458c-0.748,0-1.256-0.268-1.525-0.804
					C317.867,134.229,317.921,133.178,318.349,131.722z M319.328,131.722c-0.375,1.273-0.475,2.121-0.301,2.542
					c0.174,0.421,0.479,0.632,0.917,0.632c0.437,0,0.867-0.212,1.29-0.635c0.423-0.423,0.821-1.27,1.195-2.539
					c0.376-1.277,0.477-2.125,0.302-2.545c-0.174-0.42-0.484-0.63-0.928-0.63c-0.437,0-0.841,0.185-1.211,0.555
					C320.124,129.576,319.703,130.449,319.328,131.722z"/>
				<path style="fill:#407BFF;" d="M326.835,135.547h-0.952l1.787-6.068c-0.294,0.219-0.659,0.437-1.095,0.656
					c-0.436,0.219-0.819,0.383-1.147,0.492l0.271-0.92c0.606-0.251,1.161-0.554,1.665-0.91c0.503-0.356,0.887-0.702,1.152-1.037
					h0.614L326.835,135.547z"/>
				<path style="fill:#407BFF;" d="M330.401,131.722c0.27-0.917,0.582-1.655,0.935-2.214c0.353-0.559,0.761-0.99,1.222-1.294
					c0.461-0.303,0.974-0.455,1.539-0.455c0.416,0,0.757,0.084,1.021,0.251c0.265,0.168,0.453,0.409,0.564,0.725
					c0.112,0.316,0.159,0.7,0.142,1.153c-0.017,0.453-0.139,1.064-0.365,1.833c-0.268,0.91-0.578,1.644-0.929,2.203
					c-0.352,0.559-0.758,0.991-1.22,1.296c-0.462,0.305-0.977,0.458-1.545,0.458c-0.748,0-1.256-0.268-1.525-0.804
					C329.918,134.229,329.972,133.178,330.401,131.722z M331.379,131.722c-0.375,1.273-0.475,2.121-0.302,2.542
					c0.174,0.421,0.479,0.632,0.917,0.632c0.437,0,0.867-0.212,1.29-0.635c0.423-0.423,0.821-1.27,1.195-2.539
					c0.376-1.277,0.477-2.125,0.302-2.545c-0.174-0.42-0.484-0.63-0.928-0.63c-0.437,0-0.841,0.185-1.211,0.555
					C332.175,129.576,331.754,130.449,331.379,131.722z"/>
				<path style="fill:#407BFF;" d="M336.426,131.722c0.27-0.917,0.582-1.655,0.935-2.214c0.353-0.559,0.761-0.99,1.222-1.294
					c0.461-0.303,0.974-0.455,1.539-0.455c0.416,0,0.757,0.084,1.021,0.251c0.264,0.168,0.453,0.409,0.564,0.725
					s0.159,0.7,0.142,1.153c-0.017,0.453-0.139,1.064-0.365,1.833c-0.268,0.91-0.578,1.644-0.929,2.203s-0.758,0.991-1.22,1.296
					c-0.462,0.305-0.977,0.458-1.545,0.458c-0.748,0-1.256-0.268-1.525-0.804C335.943,134.229,335.997,133.178,336.426,131.722z
					 M337.405,131.722c-0.375,1.273-0.475,2.121-0.301,2.542c0.174,0.421,0.479,0.632,0.917,0.632c0.437,0,0.867-0.212,1.29-0.635
					c0.423-0.423,0.821-1.27,1.195-2.539c0.376-1.277,0.477-2.125,0.302-2.545c-0.174-0.42-0.484-0.63-0.928-0.63
					c-0.437,0-0.841,0.185-1.211,0.555C338.201,129.576,337.78,130.449,337.405,131.722z"/>
				<path style="fill:#407BFF;" d="M342.452,131.722c0.27-0.917,0.582-1.655,0.935-2.214c0.353-0.559,0.761-0.99,1.222-1.294
					c0.461-0.303,0.974-0.455,1.538-0.455c0.416,0,0.757,0.084,1.021,0.251c0.265,0.168,0.453,0.409,0.564,0.725
					s0.159,0.7,0.142,1.153c-0.017,0.453-0.139,1.064-0.365,1.833c-0.268,0.91-0.578,1.644-0.929,2.203
					c-0.352,0.559-0.758,0.991-1.22,1.296c-0.462,0.305-0.977,0.458-1.545,0.458c-0.748,0-1.256-0.268-1.525-0.804
					C341.969,134.229,342.023,133.178,342.452,131.722z M343.43,131.722c-0.375,1.273-0.475,2.121-0.301,2.542
					c0.174,0.421,0.479,0.632,0.917,0.632c0.437,0,0.867-0.212,1.29-0.635c0.423-0.423,0.821-1.27,1.195-2.539
					c0.376-1.277,0.477-2.125,0.302-2.545c-0.174-0.42-0.484-0.63-0.928-0.63c-0.437,0-0.841,0.185-1.211,0.555
					C344.226,129.576,343.805,130.449,343.43,131.722z"/>
				<path style="fill:#407BFF;" d="M350.938,135.547h-0.952l1.787-6.068c-0.294,0.219-0.659,0.437-1.095,0.656
					c-0.436,0.219-0.819,0.383-1.147,0.492l0.271-0.92c0.606-0.251,1.161-0.554,1.665-0.91c0.503-0.356,0.887-0.702,1.152-1.037
					h0.614L350.938,135.547z"/>
				<path style="fill:#407BFF;" d="M354.503,131.722c0.27-0.917,0.582-1.655,0.935-2.214c0.353-0.559,0.761-0.99,1.222-1.294
					c0.461-0.303,0.974-0.455,1.539-0.455c0.416,0,0.757,0.084,1.021,0.251c0.264,0.168,0.453,0.409,0.564,0.725
					s0.159,0.7,0.142,1.153c-0.017,0.453-0.139,1.064-0.365,1.833c-0.268,0.91-0.578,1.644-0.929,2.203s-0.758,0.991-1.22,1.296
					c-0.462,0.305-0.977,0.458-1.545,0.458c-0.748,0-1.256-0.268-1.525-0.804C354.02,134.229,354.074,133.178,354.503,131.722z
					 M355.481,131.722c-0.375,1.273-0.475,2.121-0.302,2.542c0.174,0.421,0.479,0.632,0.917,0.632c0.437,0,0.867-0.212,1.29-0.635
					c0.423-0.423,0.821-1.27,1.195-2.539c0.376-1.277,0.477-2.125,0.302-2.545c-0.174-0.42-0.484-0.63-0.928-0.63
					c-0.437,0-0.841,0.185-1.211,0.555C356.277,129.576,355.856,130.449,355.481,131.722z"/>
				<path style="fill:#407BFF;" d="M362.989,135.547h-0.952l1.787-6.068c-0.294,0.219-0.659,0.437-1.095,0.656
					c-0.436,0.219-0.819,0.383-1.147,0.492l0.271-0.92c0.606-0.251,1.161-0.554,1.665-0.91c0.503-0.356,0.887-0.702,1.152-1.037
					h0.614L362.989,135.547z"/>
				<path style="fill:#407BFF;" d="M368.21,135.547h-0.952l1.787-6.068c-0.294,0.219-0.659,0.437-1.095,0.656
					c-0.436,0.219-0.819,0.383-1.147,0.492l0.271-0.92c0.606-0.251,1.161-0.554,1.664-0.91c0.503-0.356,0.887-0.702,1.152-1.037
					h0.614L368.21,135.547z"/>
				<path style="fill:#407BFF;" d="M371.775,131.722c0.27-0.917,0.582-1.655,0.935-2.214c0.353-0.559,0.761-0.99,1.222-1.294
					c0.461-0.303,0.974-0.455,1.539-0.455c0.416,0,0.757,0.084,1.021,0.251c0.265,0.168,0.453,0.409,0.564,0.725
					c0.112,0.316,0.159,0.7,0.142,1.153c-0.017,0.453-0.139,1.064-0.365,1.833c-0.268,0.91-0.578,1.644-0.929,2.203
					c-0.352,0.559-0.758,0.991-1.22,1.296c-0.462,0.305-0.977,0.458-1.545,0.458c-0.748,0-1.256-0.268-1.525-0.804
					C371.293,134.229,371.346,133.178,371.775,131.722z M372.754,131.722c-0.375,1.273-0.475,2.121-0.302,2.542
					c0.174,0.421,0.479,0.632,0.917,0.632c0.437,0,0.867-0.212,1.29-0.635c0.423-0.423,0.821-1.27,1.195-2.539
					c0.376-1.277,0.477-2.125,0.302-2.545c-0.174-0.42-0.484-0.63-0.928-0.63c-0.437,0-0.841,0.185-1.211,0.555
					C373.55,129.576,373.129,130.449,372.754,131.722z"/>
				<path style="fill:#407BFF;" d="M380.261,135.547h-0.952l1.787-6.068c-0.294,0.219-0.659,0.437-1.095,0.656
					c-0.436,0.219-0.819,0.383-1.147,0.492l0.271-0.92c0.606-0.251,1.161-0.554,1.665-0.91c0.503-0.356,0.887-0.702,1.152-1.037
					h0.614L380.261,135.547z"/>
				<path style="fill:#407BFF;" d="M383.826,131.722c0.27-0.917,0.582-1.655,0.935-2.214c0.353-0.559,0.761-0.99,1.222-1.294
					c0.461-0.303,0.974-0.455,1.538-0.455c0.416,0,0.757,0.084,1.021,0.251c0.265,0.168,0.453,0.409,0.564,0.725
					c0.112,0.316,0.159,0.7,0.142,1.153c-0.017,0.453-0.139,1.064-0.365,1.833c-0.268,0.91-0.578,1.644-0.929,2.203
					c-0.352,0.559-0.758,0.991-1.22,1.296c-0.462,0.305-0.977,0.458-1.545,0.458c-0.748,0-1.256-0.268-1.525-0.804
					C383.344,134.229,383.397,133.178,383.826,131.722z M384.805,131.722c-0.375,1.273-0.475,2.121-0.301,2.542
					c0.174,0.421,0.479,0.632,0.917,0.632c0.437,0,0.867-0.212,1.29-0.635c0.423-0.423,0.821-1.27,1.195-2.539
					c0.376-1.277,0.477-2.125,0.302-2.545c-0.174-0.42-0.484-0.63-0.928-0.63c-0.437,0-0.841,0.185-1.211,0.555
					C385.601,129.576,385.18,130.449,384.805,131.722z"/>
				<path style="fill:#407BFF;" d="M316.982,148.548h-0.952l1.787-6.068c-0.294,0.219-0.659,0.437-1.095,0.656
					c-0.436,0.219-0.819,0.383-1.147,0.492l0.271-0.921c0.606-0.25,1.161-0.554,1.664-0.91c0.503-0.356,0.887-0.702,1.152-1.037
					h0.614L316.982,148.548z"/>
				<path style="fill:#407BFF;" d="M322.203,148.548h-0.952l1.787-6.068c-0.294,0.219-0.659,0.437-1.095,0.656
					c-0.436,0.219-0.819,0.383-1.147,0.492l0.271-0.921c0.606-0.25,1.161-0.554,1.664-0.91c0.504-0.356,0.887-0.702,1.152-1.037
					h0.614L322.203,148.548z"/>
				<path style="fill:#407BFF;" d="M327.424,148.548h-0.952l1.787-6.068c-0.294,0.219-0.659,0.437-1.095,0.656
					c-0.436,0.219-0.819,0.383-1.147,0.492l0.271-0.921c0.606-0.25,1.161-0.554,1.665-0.91c0.503-0.356,0.887-0.702,1.152-1.037
					h0.614L327.424,148.548z"/>
				<path style="fill:#407BFF;" d="M330.989,144.723c0.27-0.917,0.582-1.655,0.935-2.214c0.353-0.559,0.761-0.99,1.222-1.293
					c0.461-0.303,0.974-0.455,1.539-0.455c0.416,0,0.757,0.084,1.021,0.251c0.264,0.168,0.453,0.409,0.564,0.725
					c0.112,0.316,0.159,0.7,0.142,1.153c-0.017,0.453-0.139,1.064-0.365,1.833c-0.268,0.91-0.578,1.644-0.929,2.203
					c-0.352,0.559-0.758,0.991-1.22,1.296c-0.462,0.305-0.977,0.458-1.545,0.458c-0.748,0-1.256-0.268-1.525-0.804
					C330.507,147.231,330.56,146.18,330.989,144.723z M331.968,144.723c-0.375,1.273-0.475,2.12-0.302,2.542
					c0.174,0.422,0.479,0.632,0.917,0.632c0.437,0,0.867-0.212,1.29-0.635c0.423-0.423,0.821-1.27,1.195-2.539
					c0.376-1.277,0.477-2.125,0.302-2.545c-0.174-0.42-0.484-0.63-0.928-0.63c-0.437,0-0.841,0.185-1.211,0.555
					C332.764,142.577,332.343,143.45,331.968,144.723z"/>
				<path style="fill:#407BFF;" d="M339.475,148.548h-0.952l1.787-6.068c-0.294,0.219-0.659,0.437-1.095,0.656
					c-0.437,0.219-0.819,0.383-1.147,0.492l0.271-0.921c0.606-0.25,1.161-0.554,1.665-0.91c0.503-0.356,0.887-0.702,1.152-1.037
					h0.614L339.475,148.548z"/>
				<path style="fill:#407BFF;" d="M343.04,144.723c0.27-0.917,0.582-1.655,0.935-2.214c0.353-0.559,0.761-0.99,1.222-1.293
					c0.461-0.303,0.974-0.455,1.538-0.455c0.416,0,0.757,0.084,1.021,0.251c0.264,0.168,0.453,0.409,0.564,0.725
					c0.112,0.316,0.159,0.7,0.142,1.153c-0.017,0.453-0.139,1.064-0.365,1.833c-0.268,0.91-0.578,1.644-0.929,2.203
					c-0.352,0.559-0.758,0.991-1.22,1.296c-0.462,0.305-0.977,0.458-1.545,0.458c-0.748,0-1.256-0.268-1.525-0.804
					C342.558,147.231,342.612,146.18,343.04,144.723z M344.019,144.723c-0.375,1.273-0.475,2.12-0.301,2.542
					c0.174,0.422,0.479,0.632,0.917,0.632c0.437,0,0.867-0.212,1.29-0.635c0.423-0.423,0.821-1.27,1.195-2.539
					c0.376-1.277,0.477-2.125,0.302-2.545c-0.174-0.42-0.484-0.63-0.928-0.63c-0.437,0-0.841,0.185-1.211,0.555
					C344.815,142.577,344.394,143.45,344.019,144.723z"/>
				<path style="fill:#407BFF;" d="M349.066,144.723c0.27-0.917,0.582-1.655,0.935-2.214c0.353-0.559,0.761-0.99,1.222-1.293
					c0.461-0.303,0.974-0.455,1.539-0.455c0.416,0,0.757,0.084,1.021,0.251c0.265,0.168,0.453,0.409,0.564,0.725
					c0.112,0.316,0.159,0.7,0.142,1.153c-0.017,0.453-0.139,1.064-0.365,1.833c-0.268,0.91-0.578,1.644-0.929,2.203
					c-0.352,0.559-0.758,0.991-1.22,1.296c-0.462,0.305-0.977,0.458-1.545,0.458c-0.748,0-1.256-0.268-1.525-0.804
					C348.583,147.231,348.637,146.18,349.066,144.723z M350.045,144.723c-0.375,1.273-0.475,2.12-0.302,2.542
					c0.174,0.422,0.479,0.632,0.917,0.632c0.437,0,0.867-0.212,1.29-0.635c0.423-0.423,0.821-1.27,1.195-2.539
					c0.376-1.277,0.477-2.125,0.302-2.545c-0.174-0.42-0.484-0.63-0.928-0.63c-0.437,0-0.841,0.185-1.211,0.555
					C350.841,142.577,350.42,143.45,350.045,144.723z"/>
				<path style="fill:#407BFF;" d="M357.552,148.548H356.6l1.787-6.068c-0.294,0.219-0.659,0.437-1.095,0.656
					c-0.436,0.219-0.819,0.383-1.147,0.492l0.271-0.921c0.606-0.25,1.161-0.554,1.665-0.91c0.503-0.356,0.887-0.702,1.152-1.037
					h0.614L357.552,148.548z"/>
				<path style="fill:#407BFF;" d="M362.228,152.441h-0.952l1.787-6.068c-0.294,0.219-0.659,0.437-1.095,0.656
					c-0.436,0.219-0.819,0.383-1.147,0.492l0.271-0.921c0.606-0.25,1.161-0.554,1.665-0.91c0.503-0.356,0.887-0.702,1.152-1.037
					h0.614L362.228,152.441z"/>
				<path style="fill:#407BFF;" d="M367.45,152.441h-0.952l1.787-6.068c-0.294,0.219-0.659,0.437-1.095,0.656
					c-0.436,0.219-0.819,0.383-1.147,0.492l0.271-0.921c0.606-0.25,1.161-0.554,1.664-0.91c0.503-0.356,0.887-0.702,1.152-1.037
					h0.614L367.45,152.441z"/>
				<path style="fill:#407BFF;" d="M371.56,144.723c0.27-0.917,0.582-1.655,0.935-2.214c0.353-0.559,0.761-0.99,1.222-1.293
					c0.461-0.303,0.974-0.455,1.538-0.455c0.416,0,0.757,0.084,1.021,0.251c0.264,0.168,0.453,0.409,0.564,0.725
					c0.112,0.316,0.159,0.7,0.142,1.153c-0.017,0.453-0.139,1.064-0.365,1.833c-0.268,0.91-0.578,1.644-0.929,2.203
					c-0.352,0.559-0.758,0.991-1.22,1.296c-0.462,0.305-0.977,0.458-1.545,0.458c-0.748,0-1.256-0.268-1.525-0.804
					C371.077,147.231,371.131,146.18,371.56,144.723z M372.539,144.723c-0.375,1.273-0.475,2.12-0.301,2.542
					c0.174,0.422,0.479,0.632,0.917,0.632c0.437,0,0.867-0.212,1.29-0.635c0.423-0.423,0.821-1.27,1.195-2.539
					c0.376-1.277,0.477-2.125,0.302-2.545c-0.174-0.42-0.484-0.63-0.928-0.63c-0.437,0-0.841,0.185-1.211,0.555
					C373.335,142.577,372.914,143.45,372.539,144.723z"/>
				<path style="fill:#407BFF;" d="M380.046,148.548h-0.952l1.787-6.068c-0.294,0.219-0.659,0.437-1.095,0.656
					c-0.436,0.219-0.819,0.383-1.147,0.492l0.271-0.921c0.606-0.25,1.161-0.554,1.665-0.91c0.503-0.356,0.887-0.702,1.152-1.037
					h0.614L380.046,148.548z"/>
			</g>
			<g style="opacity:0.6;">
				<path style="fill:#407BFF;" d="M289.609,163.043c0.23-0.78,0.495-1.409,0.796-1.884s0.647-0.843,1.04-1.101
					c0.393-0.258,0.829-0.387,1.31-0.387c0.354,0,0.644,0.071,0.869,0.214c0.225,0.143,0.385,0.348,0.48,0.617
					c0.095,0.269,0.135,0.596,0.121,0.982s-0.118,0.906-0.311,1.56c-0.228,0.774-0.492,1.4-0.791,1.875
					c-0.299,0.476-0.645,0.844-1.038,1.103c-0.393,0.26-0.831,0.389-1.315,0.389c-0.636,0-1.069-0.228-1.298-0.684
					C289.198,165.177,289.244,164.282,289.609,163.043z M290.442,163.043c-0.319,1.084-0.405,1.805-0.257,2.164
					c0.148,0.359,0.408,0.538,0.78,0.538s0.738-0.18,1.098-0.54s0.699-1.081,1.017-2.161c0.32-1.087,0.406-1.809,0.257-2.166
					c-0.148-0.357-0.412-0.536-0.79-0.536c-0.372,0-0.716,0.158-1.031,0.473C291.12,161.216,290.761,161.959,290.442,163.043z"/>
				<path style="fill:#407BFF;" d="M296.832,166.298h-0.81l1.521-5.165c-0.25,0.186-0.561,0.372-0.932,0.558
					c-0.371,0.186-0.697,0.326-0.977,0.419l0.231-0.783c0.516-0.213,0.988-0.471,1.417-0.774c0.428-0.303,0.755-0.597,0.98-0.883
					h0.522L296.832,166.298z"/>
				<path style="fill:#407BFF;" d="M299.866,163.043c0.23-0.78,0.495-1.409,0.796-1.884c0.301-0.476,0.647-0.843,1.04-1.101
					c0.393-0.258,0.829-0.387,1.309-0.387c0.354,0,0.644,0.071,0.869,0.214c0.225,0.143,0.385,0.348,0.48,0.617
					c0.095,0.269,0.135,0.596,0.121,0.982s-0.118,0.906-0.311,1.56c-0.228,0.774-0.492,1.4-0.791,1.875
					c-0.299,0.476-0.645,0.844-1.039,1.103c-0.393,0.26-0.831,0.389-1.315,0.389c-0.636,0-1.069-0.228-1.298-0.684
					C299.456,165.177,299.501,164.282,299.866,163.043z M300.699,163.043c-0.319,1.084-0.405,1.805-0.257,2.164
					c0.148,0.359,0.408,0.538,0.78,0.538c0.372,0,0.738-0.18,1.098-0.54c0.36-0.36,0.699-1.081,1.017-2.161
					c0.32-1.087,0.406-1.809,0.257-2.166c-0.148-0.357-0.412-0.536-0.79-0.536c-0.372,0-0.716,0.158-1.031,0.473
					C301.377,161.216,301.018,161.959,300.699,163.043z"/>
				<path style="fill:#407BFF;" d="M304.995,163.043c0.23-0.78,0.495-1.409,0.796-1.884c0.301-0.476,0.647-0.843,1.04-1.101
					c0.393-0.258,0.829-0.387,1.31-0.387c0.354,0,0.644,0.071,0.869,0.214c0.225,0.143,0.385,0.348,0.48,0.617
					c0.095,0.269,0.135,0.596,0.121,0.982s-0.118,0.906-0.311,1.56c-0.228,0.774-0.492,1.4-0.791,1.875
					c-0.299,0.476-0.645,0.844-1.039,1.103c-0.393,0.26-0.831,0.389-1.315,0.389c-0.636,0-1.069-0.228-1.298-0.684
					C304.584,165.177,304.63,164.282,304.995,163.043z M305.828,163.043c-0.319,1.084-0.405,1.805-0.257,2.164
					c0.148,0.359,0.408,0.538,0.78,0.538s0.738-0.18,1.098-0.54c0.36-0.36,0.699-1.081,1.017-2.161
					c0.32-1.087,0.406-1.809,0.257-2.166c-0.148-0.357-0.412-0.536-0.79-0.536c-0.372,0-0.716,0.158-1.031,0.473
					C306.505,161.216,306.147,161.959,305.828,163.043z"/>
				<path style="fill:#407BFF;" d="M312.217,166.298h-0.81l1.521-5.165c-0.25,0.186-0.561,0.372-0.932,0.558
					c-0.371,0.186-0.697,0.326-0.977,0.419l0.231-0.783c0.516-0.213,0.988-0.471,1.417-0.774c0.428-0.303,0.755-0.597,0.98-0.883
					h0.522L312.217,166.298z"/>
				<path style="fill:#407BFF;" d="M315.252,163.043c0.23-0.78,0.495-1.409,0.796-1.884s0.647-0.843,1.04-1.101
					c0.393-0.258,0.829-0.387,1.31-0.387c0.354,0,0.644,0.071,0.869,0.214c0.225,0.143,0.385,0.348,0.48,0.617
					c0.095,0.269,0.135,0.596,0.121,0.982c-0.015,0.386-0.118,0.906-0.311,1.56c-0.228,0.774-0.492,1.4-0.791,1.875
					c-0.299,0.476-0.645,0.844-1.039,1.103c-0.393,0.26-0.831,0.389-1.315,0.389c-0.636,0-1.069-0.228-1.298-0.684
					C314.841,165.177,314.887,164.282,315.252,163.043z M316.085,163.043c-0.319,1.084-0.405,1.805-0.257,2.164
					c0.148,0.359,0.408,0.538,0.78,0.538c0.372,0,0.738-0.18,1.098-0.54c0.36-0.36,0.699-1.081,1.017-2.161
					c0.32-1.087,0.406-1.809,0.257-2.166c-0.148-0.357-0.412-0.536-0.79-0.536c-0.372,0-0.716,0.158-1.031,0.473
					C316.762,161.216,316.404,161.959,316.085,163.043z"/>
				<path style="fill:#407BFF;" d="M322.475,166.298h-0.811l1.521-5.165c-0.25,0.186-0.561,0.372-0.932,0.558
					c-0.372,0.186-0.697,0.326-0.977,0.419l0.231-0.783c0.516-0.213,0.988-0.471,1.417-0.774c0.428-0.303,0.755-0.597,0.98-0.883
					h0.522L322.475,166.298z"/>
				<path style="fill:#407BFF;" d="M325.509,163.043c0.23-0.78,0.495-1.409,0.796-1.884c0.301-0.476,0.647-0.843,1.04-1.101
					c0.393-0.258,0.829-0.387,1.31-0.387c0.354,0,0.644,0.071,0.869,0.214c0.225,0.143,0.385,0.348,0.48,0.617
					c0.095,0.269,0.135,0.596,0.121,0.982s-0.118,0.906-0.311,1.56c-0.228,0.774-0.492,1.4-0.791,1.875
					c-0.299,0.476-0.645,0.844-1.039,1.103c-0.393,0.26-0.831,0.389-1.315,0.389c-0.636,0-1.069-0.228-1.298-0.684
					C325.098,165.177,325.144,164.282,325.509,163.043z M326.342,163.043c-0.319,1.084-0.405,1.805-0.257,2.164
					c0.148,0.359,0.408,0.538,0.78,0.538c0.372,0,0.738-0.18,1.098-0.54c0.36-0.36,0.699-1.081,1.017-2.161
					c0.32-1.087,0.406-1.809,0.257-2.166c-0.148-0.357-0.412-0.536-0.79-0.536c-0.372,0-0.716,0.158-1.031,0.473
					C327.019,161.216,326.661,161.959,326.342,163.043z"/>
				<path style="fill:#407BFF;" d="M330.638,163.043c0.23-0.78,0.495-1.409,0.796-1.884c0.301-0.476,0.647-0.843,1.04-1.101
					c0.393-0.258,0.829-0.387,1.309-0.387c0.354,0,0.644,0.071,0.869,0.214c0.225,0.143,0.385,0.348,0.48,0.617
					c0.095,0.269,0.135,0.596,0.121,0.982c-0.015,0.386-0.118,0.906-0.311,1.56c-0.228,0.774-0.492,1.4-0.791,1.875
					c-0.299,0.476-0.645,0.844-1.038,1.103c-0.393,0.26-0.831,0.389-1.315,0.389c-0.636,0-1.069-0.228-1.298-0.684
					C330.227,165.177,330.272,164.282,330.638,163.043z M331.47,163.043c-0.319,1.084-0.405,1.805-0.257,2.164
					c0.148,0.359,0.408,0.538,0.78,0.538s0.738-0.18,1.098-0.54s0.699-1.081,1.017-2.161c0.32-1.087,0.406-1.809,0.257-2.166
					c-0.148-0.357-0.412-0.536-0.79-0.536c-0.372,0-0.716,0.158-1.031,0.473C332.148,161.216,331.79,161.959,331.47,163.043z"/>
				<path style="fill:#407BFF;" d="M337.86,166.298h-0.81l1.521-5.165c-0.25,0.186-0.561,0.372-0.932,0.558
					c-0.371,0.186-0.697,0.326-0.977,0.419l0.231-0.783c0.516-0.213,0.988-0.471,1.417-0.774c0.428-0.303,0.755-0.597,0.98-0.883
					h0.522L337.86,166.298z"/>
				<path style="fill:#407BFF;" d="M341.545,160.343c0.23-0.78,0.495-1.409,0.796-1.884c0.301-0.476,0.647-0.843,1.04-1.101
					c0.393-0.258,0.829-0.387,1.309-0.387c0.354,0,0.644,0.071,0.869,0.214c0.225,0.143,0.385,0.348,0.48,0.617
					c0.095,0.269,0.135,0.596,0.121,0.982c-0.014,0.386-0.118,0.906-0.311,1.56c-0.228,0.774-0.492,1.4-0.791,1.875
					s-0.645,0.843-1.039,1.103c-0.393,0.26-0.831,0.39-1.315,0.39c-0.636,0-1.069-0.228-1.298-0.684
					C341.134,162.478,341.18,161.583,341.545,160.343z M342.378,160.343c-0.319,1.084-0.405,1.805-0.257,2.163
					c0.148,0.359,0.408,0.538,0.78,0.538c0.372,0,0.738-0.18,1.098-0.54c0.36-0.36,0.699-1.081,1.017-2.161
					c0.32-1.087,0.406-1.809,0.257-2.166c-0.148-0.357-0.412-0.536-0.79-0.536c-0.372,0-0.716,0.158-1.031,0.473
					C343.055,158.517,342.697,159.26,342.378,160.343z"/>
				<path style="fill:#407BFF;" d="M346.023,163.043c0.23-0.78,0.495-1.409,0.796-1.884c0.301-0.476,0.647-0.843,1.04-1.101
					c0.393-0.258,0.829-0.387,1.31-0.387c0.354,0,0.644,0.071,0.869,0.214c0.225,0.143,0.385,0.348,0.48,0.617
					c0.095,0.269,0.135,0.596,0.121,0.982s-0.118,0.906-0.311,1.56c-0.228,0.774-0.492,1.4-0.791,1.875
					c-0.299,0.476-0.645,0.844-1.039,1.103c-0.393,0.26-0.831,0.389-1.315,0.389c-0.636,0-1.069-0.228-1.298-0.684
					C345.612,165.177,345.658,164.282,346.023,163.043z M346.856,163.043c-0.319,1.084-0.405,1.805-0.257,2.164
					c0.148,0.359,0.408,0.538,0.78,0.538c0.372,0,0.738-0.18,1.098-0.54c0.36-0.36,0.699-1.081,1.017-2.161
					c0.32-1.087,0.406-1.809,0.257-2.166c-0.148-0.357-0.412-0.536-0.79-0.536c-0.372,0-0.716,0.158-1.031,0.473
					C347.534,161.216,347.175,161.959,346.856,163.043z"/>
				<path style="fill:#407BFF;" d="M288.445,177.364h-0.81l1.521-5.165c-0.25,0.186-0.561,0.372-0.932,0.558
					c-0.372,0.186-0.697,0.326-0.977,0.419l0.231-0.783c0.516-0.213,0.988-0.471,1.417-0.775c0.428-0.303,0.755-0.597,0.98-0.882
					h0.522L288.445,177.364z"/>
				<path style="fill:#407BFF;" d="M291.479,174.108c0.23-0.781,0.495-1.409,0.796-1.884c0.301-0.476,0.647-0.843,1.04-1.101
					c0.393-0.258,0.829-0.387,1.309-0.387c0.354,0,0.644,0.071,0.869,0.214c0.225,0.143,0.385,0.348,0.48,0.617
					c0.095,0.269,0.135,0.596,0.121,0.982c-0.014,0.386-0.118,0.906-0.311,1.56c-0.228,0.774-0.492,1.4-0.791,1.875
					c-0.299,0.476-0.645,0.844-1.038,1.103c-0.393,0.26-0.831,0.389-1.315,0.389c-0.636,0-1.069-0.228-1.298-0.684
					C291.068,176.243,291.114,175.348,291.479,174.108z M292.312,174.108c-0.319,1.084-0.405,1.805-0.257,2.163
					c0.148,0.359,0.408,0.538,0.78,0.538s0.738-0.18,1.098-0.54c0.36-0.36,0.699-1.081,1.017-2.161
					c0.32-1.087,0.406-1.809,0.257-2.166c-0.148-0.357-0.412-0.536-0.79-0.536c-0.372,0-0.716,0.158-1.031,0.473
					C292.99,172.282,292.631,173.025,292.312,174.108z"/>
				<path style="fill:#407BFF;" d="M296.608,174.108c0.23-0.781,0.495-1.409,0.796-1.884c0.301-0.476,0.647-0.843,1.04-1.101
					c0.393-0.258,0.829-0.387,1.31-0.387c0.354,0,0.644,0.071,0.869,0.214c0.225,0.143,0.385,0.348,0.48,0.617
					c0.095,0.269,0.135,0.596,0.121,0.982c-0.015,0.386-0.118,0.906-0.311,1.56c-0.228,0.774-0.492,1.4-0.791,1.875
					c-0.299,0.476-0.645,0.844-1.038,1.103c-0.393,0.26-0.831,0.389-1.315,0.389c-0.636,0-1.069-0.228-1.298-0.684
					C296.197,176.243,296.243,175.348,296.608,174.108z M297.441,174.108c-0.319,1.084-0.405,1.805-0.257,2.163
					c0.148,0.359,0.408,0.538,0.78,0.538c0.372,0,0.738-0.18,1.098-0.54c0.36-0.36,0.699-1.081,1.017-2.161
					c0.32-1.087,0.406-1.809,0.257-2.166c-0.148-0.357-0.412-0.536-0.79-0.536c-0.372,0-0.716,0.158-1.031,0.473
					C298.118,172.282,297.76,173.025,297.441,174.108z"/>
				<path style="fill:#407BFF;" d="M303.831,177.364h-0.811l1.521-5.165c-0.25,0.186-0.561,0.372-0.932,0.558
					s-0.697,0.326-0.977,0.419l0.231-0.783c0.516-0.213,0.988-0.471,1.417-0.775c0.428-0.303,0.755-0.597,0.98-0.882h0.522
					L303.831,177.364z"/>
				<path style="fill:#407BFF;" d="M306.865,174.108c0.23-0.781,0.495-1.409,0.796-1.884c0.301-0.476,0.647-0.843,1.04-1.101
					c0.393-0.258,0.829-0.387,1.309-0.387c0.354,0,0.644,0.071,0.869,0.214c0.225,0.143,0.385,0.348,0.48,0.617
					c0.095,0.269,0.135,0.596,0.121,0.982s-0.118,0.906-0.311,1.56c-0.228,0.774-0.492,1.4-0.791,1.875
					c-0.299,0.476-0.645,0.844-1.039,1.103c-0.393,0.26-0.831,0.389-1.315,0.389c-0.636,0-1.069-0.228-1.298-0.684
					C306.454,176.243,306.5,175.348,306.865,174.108z M307.698,174.108c-0.319,1.084-0.405,1.805-0.257,2.163
					c0.148,0.359,0.408,0.538,0.78,0.538c0.372,0,0.738-0.18,1.098-0.54c0.36-0.36,0.699-1.081,1.017-2.161
					c0.32-1.087,0.406-1.809,0.257-2.166c-0.148-0.357-0.412-0.536-0.79-0.536c-0.372,0-0.716,0.158-1.031,0.473
					C308.375,172.282,308.017,173.025,307.698,174.108z"/>
				<path style="fill:#407BFF;" d="M314.088,177.364h-0.81l1.521-5.165c-0.25,0.186-0.561,0.372-0.932,0.558
					c-0.372,0.186-0.697,0.326-0.977,0.419l0.231-0.783c0.516-0.213,0.988-0.471,1.417-0.775c0.428-0.303,0.755-0.597,0.98-0.882
					h0.522L314.088,177.364z"/>
				<path style="fill:#407BFF;" d="M317.122,174.108c0.23-0.781,0.495-1.409,0.796-1.884c0.301-0.476,0.647-0.843,1.04-1.101
					c0.393-0.258,0.829-0.387,1.31-0.387c0.354,0,0.644,0.071,0.869,0.214c0.225,0.143,0.385,0.348,0.48,0.617
					c0.095,0.269,0.135,0.596,0.121,0.982c-0.015,0.386-0.118,0.906-0.311,1.56c-0.228,0.774-0.492,1.4-0.791,1.875
					c-0.299,0.476-0.645,0.844-1.038,1.103c-0.393,0.26-0.831,0.389-1.315,0.389c-0.636,0-1.069-0.228-1.298-0.684
					C316.711,176.243,316.757,175.348,317.122,174.108z M317.955,174.108c-0.319,1.084-0.405,1.805-0.257,2.163
					c0.148,0.359,0.408,0.538,0.78,0.538c0.372,0,0.738-0.18,1.098-0.54c0.36-0.36,0.699-1.081,1.017-2.161
					c0.32-1.087,0.406-1.809,0.257-2.166c-0.148-0.357-0.412-0.536-0.79-0.536c-0.372,0-0.716,0.158-1.031,0.473
					C318.632,172.282,318.274,173.025,317.955,174.108z"/>
				<path style="fill:#407BFF;" d="M324.345,177.364h-0.811l1.521-5.165c-0.25,0.186-0.561,0.372-0.932,0.558
					s-0.697,0.326-0.977,0.419l0.231-0.783c0.516-0.213,0.988-0.471,1.417-0.775c0.428-0.303,0.755-0.597,0.98-0.882h0.522
					L324.345,177.364z"/>
				<path style="fill:#407BFF;" d="M328.789,177.364h-0.81l1.521-5.165c-0.25,0.186-0.561,0.372-0.932,0.558
					s-0.697,0.326-0.977,0.419l0.231-0.783c0.516-0.213,0.988-0.471,1.417-0.775c0.428-0.303,0.755-0.597,0.98-0.882h0.522
					L328.789,177.364z"/>
				<path style="fill:#407BFF;" d="M333.233,177.364h-0.811l1.521-5.165c-0.25,0.186-0.561,0.372-0.932,0.558
					c-0.372,0.186-0.697,0.326-0.977,0.419l0.231-0.783c0.516-0.213,0.988-0.471,1.417-0.775c0.428-0.303,0.755-0.597,0.98-0.882
					h0.522L333.233,177.364z"/>
				<path style="fill:#407BFF;" d="M336.267,174.108c0.23-0.781,0.495-1.409,0.796-1.884c0.301-0.476,0.647-0.843,1.04-1.101
					c0.393-0.258,0.829-0.387,1.31-0.387c0.354,0,0.644,0.071,0.869,0.214c0.225,0.143,0.385,0.348,0.48,0.617
					c0.095,0.269,0.135,0.596,0.121,0.982s-0.118,0.906-0.311,1.56c-0.228,0.774-0.492,1.4-0.791,1.875
					c-0.299,0.476-0.645,0.844-1.039,1.103c-0.393,0.26-0.831,0.389-1.315,0.389c-0.636,0-1.069-0.228-1.298-0.684
					C335.856,176.243,335.902,175.348,336.267,174.108z M337.1,174.108c-0.319,1.084-0.405,1.805-0.257,2.163
					c0.148,0.359,0.408,0.538,0.78,0.538c0.372,0,0.738-0.18,1.098-0.54c0.36-0.36,0.699-1.081,1.017-2.161
					c0.32-1.087,0.406-1.809,0.257-2.166c-0.148-0.357-0.412-0.536-0.79-0.536c-0.372,0-0.716,0.158-1.031,0.473
					C337.778,172.282,337.419,173.025,337.1,174.108z"/>
				<path style="fill:#407BFF;" d="M341.396,174.108c0.23-0.781,0.495-1.409,0.796-1.884c0.301-0.476,0.647-0.843,1.04-1.101
					c0.393-0.258,0.829-0.387,1.31-0.387c0.354,0,0.644,0.071,0.869,0.214c0.225,0.143,0.385,0.348,0.48,0.617
					c0.095,0.269,0.135,0.596,0.121,0.982s-0.118,0.906-0.311,1.56c-0.228,0.774-0.492,1.4-0.791,1.875
					c-0.299,0.476-0.645,0.844-1.038,1.103c-0.393,0.26-0.831,0.389-1.315,0.389c-0.636,0-1.069-0.228-1.298-0.684
					C340.985,176.243,341.031,175.348,341.396,174.108z M342.229,174.108c-0.319,1.084-0.405,1.805-0.257,2.163
					c0.148,0.359,0.408,0.538,0.78,0.538s0.738-0.18,1.098-0.54c0.36-0.36,0.699-1.081,1.017-2.161
					c0.32-1.087,0.406-1.809,0.257-2.166c-0.148-0.357-0.412-0.536-0.79-0.536c-0.372,0-0.716,0.158-1.031,0.473
					C342.906,172.282,342.548,173.025,342.229,174.108z"/>
			</g>
			<g style="opacity:0.2;">
				<path style="fill:#407BFF;" d="M299.621,189.829c0.213-0.722,0.458-1.303,0.736-1.743c0.278-0.44,0.599-0.779,0.962-1.018
					c0.363-0.239,0.767-0.358,1.211-0.358c0.328,0,0.595,0.066,0.804,0.198c0.208,0.132,0.356,0.322,0.444,0.57
					c0.088,0.249,0.125,0.551,0.112,0.908c-0.013,0.357-0.109,0.838-0.288,1.443c-0.211,0.716-0.455,1.295-0.732,1.735
					c-0.277,0.44-0.597,0.78-0.961,1.02c-0.364,0.24-0.769,0.36-1.216,0.36c-0.589,0-0.989-0.211-1.2-0.633
					C299.241,191.803,299.284,190.975,299.621,189.829z M300.392,189.829c-0.295,1.002-0.374,1.669-0.237,2.001
					c0.137,0.332,0.378,0.498,0.722,0.498s0.683-0.167,1.016-0.5c0.333-0.333,0.646-1,0.941-1.999
					c0.296-1.005,0.375-1.673,0.238-2.003c-0.137-0.33-0.381-0.496-0.731-0.496c-0.344,0-0.662,0.146-0.953,0.437
					C301.018,188.139,300.687,188.826,300.392,189.829z"/>
				<path style="fill:#407BFF;" d="M304.365,189.829c0.213-0.722,0.458-1.303,0.736-1.743c0.278-0.44,0.599-0.779,0.962-1.018
					c0.363-0.239,0.767-0.358,1.211-0.358c0.328,0,0.595,0.066,0.804,0.198c0.208,0.132,0.356,0.322,0.444,0.57
					c0.088,0.249,0.125,0.551,0.112,0.908c-0.013,0.357-0.109,0.838-0.288,1.443c-0.211,0.716-0.455,1.295-0.732,1.735
					c-0.277,0.44-0.597,0.78-0.961,1.02c-0.364,0.24-0.769,0.36-1.216,0.36c-0.589,0-0.989-0.211-1.2-0.633
					C303.985,191.803,304.027,190.975,304.365,189.829z M305.135,189.829c-0.295,1.002-0.374,1.669-0.237,2.001
					c0.137,0.332,0.378,0.498,0.722,0.498s0.683-0.167,1.016-0.5c0.333-0.333,0.646-1,0.941-1.999
					c0.296-1.005,0.375-1.673,0.238-2.003c-0.137-0.33-0.381-0.496-0.731-0.496c-0.344,0-0.662,0.146-0.953,0.437
					C305.762,188.139,305.43,188.826,305.135,189.829z"/>
				<path style="fill:#407BFF;" d="M309.108,189.829c0.213-0.722,0.458-1.303,0.736-1.743c0.278-0.44,0.599-0.779,0.962-1.018
					c0.363-0.239,0.767-0.358,1.211-0.358c0.328,0,0.596,0.066,0.804,0.198c0.208,0.132,0.356,0.322,0.444,0.57
					c0.088,0.249,0.125,0.551,0.112,0.908c-0.013,0.357-0.109,0.838-0.288,1.443c-0.211,0.716-0.455,1.295-0.732,1.735
					c-0.277,0.44-0.597,0.78-0.961,1.02c-0.364,0.24-0.769,0.36-1.216,0.36c-0.589,0-0.989-0.211-1.2-0.633
					C308.728,191.803,308.771,190.975,309.108,189.829z M309.879,189.829c-0.295,1.002-0.374,1.669-0.237,2.001
					c0.137,0.332,0.378,0.498,0.722,0.498s0.683-0.167,1.016-0.5c0.333-0.333,0.646-1,0.941-1.999
					c0.296-1.005,0.375-1.673,0.238-2.003c-0.137-0.33-0.381-0.496-0.731-0.496c-0.344,0-0.662,0.146-0.953,0.437
					C310.505,188.139,310.174,188.826,309.879,189.829z"/>
				<path style="fill:#407BFF;" d="M315.789,192.84h-0.75l1.407-4.777c-0.231,0.172-0.518,0.344-0.862,0.516
					c-0.344,0.172-0.645,0.301-0.903,0.387l0.213-0.725c0.477-0.197,0.914-0.436,1.31-0.716c0.396-0.28,0.698-0.552,0.907-0.816
					h0.483L315.789,192.84z"/>
				<path style="fill:#407BFF;" d="M318.595,189.829c0.213-0.722,0.458-1.303,0.736-1.743c0.278-0.44,0.599-0.779,0.962-1.018
					c0.363-0.239,0.767-0.358,1.211-0.358c0.328,0,0.596,0.066,0.804,0.198c0.208,0.132,0.356,0.322,0.444,0.57
					c0.088,0.249,0.125,0.551,0.112,0.908c-0.013,0.357-0.109,0.838-0.288,1.443c-0.211,0.716-0.455,1.295-0.732,1.735
					c-0.277,0.44-0.597,0.78-0.961,1.02c-0.364,0.24-0.769,0.36-1.216,0.36c-0.589,0-0.989-0.211-1.2-0.633
					C318.215,191.803,318.258,190.975,318.595,189.829z M319.366,189.829c-0.295,1.002-0.374,1.669-0.237,2.001
					c0.137,0.332,0.378,0.498,0.722,0.498c0.344,0,0.683-0.167,1.016-0.5c0.333-0.333,0.646-1,0.941-1.999
					c0.296-1.005,0.375-1.673,0.238-2.003c-0.137-0.33-0.381-0.496-0.731-0.496c-0.344,0-0.662,0.146-0.953,0.437
					C319.992,188.139,319.661,188.826,319.366,189.829z"/>
				<path style="fill:#407BFF;" d="M325.276,192.84h-0.75l1.407-4.777c-0.231,0.172-0.518,0.344-0.862,0.516
					c-0.344,0.172-0.645,0.301-0.903,0.387l0.213-0.725c0.477-0.197,0.914-0.436,1.31-0.716c0.396-0.28,0.698-0.552,0.907-0.816
					h0.483L325.276,192.84z"/>
				<path style="fill:#407BFF;" d="M328.082,189.829c0.212-0.722,0.458-1.303,0.736-1.743c0.278-0.44,0.599-0.779,0.962-1.018
					c0.363-0.239,0.767-0.358,1.211-0.358c0.328,0,0.596,0.066,0.804,0.198c0.208,0.132,0.356,0.322,0.444,0.57
					c0.088,0.249,0.125,0.551,0.112,0.908c-0.013,0.357-0.109,0.838-0.288,1.443c-0.211,0.716-0.455,1.295-0.732,1.735
					c-0.277,0.44-0.597,0.78-0.961,1.02c-0.364,0.24-0.769,0.36-1.216,0.36c-0.589,0-0.989-0.211-1.2-0.633
					C327.702,191.803,327.745,190.975,328.082,189.829z M328.853,189.829c-0.295,1.002-0.374,1.669-0.237,2.001
					c0.137,0.332,0.378,0.498,0.722,0.498c0.344,0,0.683-0.167,1.016-0.5c0.333-0.333,0.646-1,0.941-1.999
					c0.296-1.005,0.375-1.673,0.238-2.003c-0.137-0.33-0.381-0.496-0.731-0.496c-0.344,0-0.662,0.146-0.953,0.437
					C329.479,188.139,329.148,188.826,328.853,189.829z"/>
				<path style="fill:#407BFF;" d="M334.763,192.84h-0.75l1.407-4.777c-0.231,0.172-0.518,0.344-0.862,0.516
					c-0.344,0.172-0.645,0.301-0.903,0.387l0.213-0.725c0.477-0.197,0.914-0.436,1.31-0.716c0.396-0.28,0.698-0.552,0.907-0.816
					h0.483L334.763,192.84z"/>
				<path style="fill:#407BFF;" d="M337.569,189.829c0.212-0.722,0.458-1.303,0.736-1.743c0.278-0.44,0.599-0.779,0.962-1.018
					c0.363-0.239,0.767-0.358,1.211-0.358c0.328,0,0.596,0.066,0.804,0.198c0.208,0.132,0.356,0.322,0.444,0.57
					c0.088,0.249,0.125,0.551,0.112,0.908c-0.013,0.357-0.109,0.838-0.288,1.443c-0.211,0.716-0.455,1.295-0.732,1.735
					c-0.277,0.44-0.597,0.78-0.961,1.02c-0.364,0.24-0.769,0.36-1.216,0.36c-0.589,0-0.989-0.211-1.2-0.633
					C337.189,191.803,337.232,190.975,337.569,189.829z M338.34,189.829c-0.295,1.002-0.374,1.669-0.237,2.001
					c0.137,0.332,0.378,0.498,0.722,0.498c0.344,0,0.683-0.167,1.016-0.5c0.333-0.333,0.646-1,0.941-1.999
					c0.296-1.005,0.375-1.673,0.238-2.003c-0.137-0.33-0.381-0.496-0.731-0.496c-0.344,0-0.662,0.146-0.953,0.437
					C338.966,188.139,338.635,188.826,338.34,189.829z"/>
				<path style="fill:#407BFF;" d="M344.25,192.84h-0.75l1.407-4.777c-0.231,0.172-0.518,0.344-0.862,0.516
					c-0.344,0.172-0.645,0.301-0.903,0.387l0.213-0.725c0.477-0.197,0.914-0.436,1.31-0.716c0.396-0.28,0.698-0.552,0.907-0.816
					h0.483L344.25,192.84z"/>
				<path style="fill:#407BFF;" d="M347.056,189.829c0.212-0.722,0.458-1.303,0.736-1.743c0.278-0.44,0.599-0.779,0.962-1.018
					c0.363-0.239,0.767-0.358,1.211-0.358c0.328,0,0.596,0.066,0.804,0.198c0.208,0.132,0.356,0.322,0.444,0.57
					c0.088,0.249,0.125,0.551,0.112,0.908c-0.013,0.357-0.109,0.838-0.288,1.443c-0.211,0.716-0.455,1.295-0.732,1.735
					c-0.277,0.44-0.597,0.78-0.961,1.02c-0.364,0.24-0.769,0.36-1.216,0.36c-0.589,0-0.989-0.211-1.2-0.633
					C346.676,191.803,346.719,190.975,347.056,189.829z M347.827,189.829c-0.295,1.002-0.374,1.669-0.237,2.001
					c0.137,0.332,0.378,0.498,0.722,0.498c0.344,0,0.683-0.167,1.016-0.5c0.333-0.333,0.646-1,0.941-1.999
					c0.296-1.005,0.375-1.673,0.238-2.003c-0.137-0.33-0.381-0.496-0.731-0.496c-0.344,0-0.662,0.146-0.953,0.437
					C348.453,188.139,348.122,188.826,347.827,189.829z"/>
				<path style="fill:#407BFF;" d="M351.8,189.829c0.212-0.722,0.458-1.303,0.736-1.743c0.278-0.44,0.599-0.779,0.962-1.018
					c0.363-0.239,0.767-0.358,1.211-0.358c0.328,0,0.596,0.066,0.804,0.198c0.208,0.132,0.356,0.322,0.444,0.57
					c0.088,0.249,0.125,0.551,0.112,0.908c-0.013,0.357-0.109,0.838-0.288,1.443c-0.211,0.716-0.455,1.295-0.732,1.735
					c-0.277,0.44-0.597,0.78-0.961,1.02c-0.364,0.24-0.769,0.36-1.216,0.36c-0.589,0-0.989-0.211-1.2-0.633
					C351.42,191.803,351.462,190.975,351.8,189.829z M352.57,189.829c-0.295,1.002-0.374,1.669-0.237,2.001
					c0.137,0.332,0.378,0.498,0.722,0.498c0.344,0,0.683-0.167,1.016-0.5c0.333-0.333,0.646-1,0.941-1.999
					c0.296-1.005,0.375-1.673,0.238-2.003c-0.137-0.33-0.381-0.496-0.731-0.496c-0.344,0-0.662,0.146-0.953,0.437
					C353.197,188.139,352.865,188.826,352.57,189.829z"/>
				<path style="fill:#407BFF;" d="M298.544,203.074h-0.75l1.407-4.777c-0.231,0.172-0.518,0.344-0.862,0.516
					c-0.344,0.172-0.645,0.301-0.903,0.387l0.213-0.725c0.477-0.197,0.914-0.436,1.31-0.716s0.699-0.553,0.907-0.816h0.483
					L298.544,203.074z"/>
				<path style="fill:#407BFF;" d="M300.701,202.608c0.212-0.722,0.458-1.303,0.736-1.743c0.278-0.44,0.599-0.779,0.962-1.018
					s0.767-0.358,1.211-0.358c0.328,0,0.595,0.066,0.804,0.198c0.208,0.132,0.356,0.322,0.444,0.571s0.125,0.551,0.112,0.908
					c-0.013,0.357-0.109,0.838-0.288,1.443c-0.211,0.716-0.455,1.295-0.732,1.735c-0.277,0.44-0.597,0.78-0.96,1.02
					c-0.364,0.24-0.769,0.36-1.216,0.36c-0.589,0-0.989-0.211-1.2-0.633C300.32,204.582,300.363,203.755,300.701,202.608z
					 M301.471,202.608c-0.295,1.002-0.374,1.669-0.237,2.001c0.137,0.332,0.378,0.498,0.722,0.498c0.344,0,0.683-0.167,1.016-0.5
					c0.333-0.333,0.646-0.999,0.941-1.999c0.296-1.005,0.375-1.673,0.238-2.003c-0.137-0.33-0.381-0.496-0.731-0.496
					c-0.344,0-0.662,0.146-0.953,0.437C302.098,200.919,301.766,201.606,301.471,202.608z"/>
				<path style="fill:#407BFF;" d="M308.031,203.074h-0.75l1.407-4.777c-0.231,0.172-0.518,0.344-0.862,0.516
					c-0.344,0.172-0.645,0.301-0.903,0.387l0.213-0.725c0.477-0.197,0.914-0.436,1.31-0.716s0.699-0.553,0.907-0.816h0.483
					L308.031,203.074z"/>
				<path style="fill:#407BFF;" d="M310.188,202.608c0.212-0.722,0.458-1.303,0.736-1.743c0.278-0.44,0.599-0.779,0.962-1.018
					c0.363-0.239,0.767-0.358,1.211-0.358c0.328,0,0.595,0.066,0.804,0.198c0.208,0.132,0.356,0.322,0.444,0.571
					s0.125,0.551,0.112,0.908c-0.013,0.357-0.109,0.838-0.287,1.443c-0.211,0.716-0.455,1.295-0.732,1.735
					c-0.277,0.44-0.597,0.78-0.961,1.02c-0.364,0.24-0.769,0.36-1.216,0.36c-0.589,0-0.989-0.211-1.201-0.633
					C309.807,204.582,309.85,203.755,310.188,202.608z M310.958,202.608c-0.295,1.002-0.374,1.669-0.237,2.001
					c0.137,0.332,0.378,0.498,0.722,0.498c0.344,0,0.683-0.167,1.015-0.5c0.333-0.333,0.646-0.999,0.941-1.999
					c0.296-1.005,0.375-1.673,0.238-2.003c-0.137-0.33-0.381-0.496-0.731-0.496c-0.344,0-0.662,0.146-0.953,0.437
					C311.585,200.919,311.253,201.606,310.958,202.608z"/>
				<path style="fill:#407BFF;" d="M317.518,203.074h-0.75l1.407-4.777c-0.231,0.172-0.518,0.344-0.862,0.516
					c-0.344,0.172-0.645,0.301-0.903,0.387l0.213-0.725c0.477-0.197,0.914-0.436,1.31-0.716s0.699-0.553,0.907-0.816h0.483
					L317.518,203.074z"/>
				<path style="fill:#407BFF;" d="M320.325,200.064c0.212-0.722,0.458-1.303,0.736-1.743c0.278-0.44,0.599-0.779,0.962-1.018
					s0.767-0.358,1.211-0.358c0.328,0,0.595,0.066,0.804,0.198c0.208,0.132,0.356,0.322,0.444,0.571s0.125,0.551,0.112,0.908
					c-0.013,0.357-0.109,0.838-0.288,1.443c-0.211,0.716-0.455,1.295-0.732,1.735c-0.277,0.44-0.597,0.78-0.96,1.02
					c-0.364,0.24-0.769,0.36-1.216,0.36c-0.589,0-0.989-0.211-1.2-0.633C319.945,202.038,319.987,201.21,320.325,200.064z
					 M321.095,200.064c-0.295,1.002-0.374,1.669-0.237,2.001c0.137,0.332,0.378,0.498,0.722,0.498c0.344,0,0.683-0.167,1.016-0.5
					c0.333-0.333,0.646-0.999,0.941-1.999c0.296-1.005,0.375-1.673,0.238-2.003c-0.137-0.33-0.381-0.496-0.731-0.496
					c-0.344,0-0.662,0.146-0.953,0.437C321.722,198.374,321.39,199.061,321.095,200.064z"/>
				<path style="fill:#407BFF;" d="M327.005,203.074h-0.75l1.407-4.777c-0.231,0.172-0.518,0.344-0.862,0.516
					c-0.344,0.172-0.645,0.301-0.903,0.387l0.213-0.725c0.477-0.197,0.914-0.436,1.31-0.716s0.699-0.553,0.907-0.816h0.483
					L327.005,203.074z"/>
				<path style="fill:#407BFF;" d="M331.116,203.074h-0.75l1.407-4.777c-0.231,0.172-0.518,0.344-0.862,0.516
					c-0.344,0.172-0.645,0.301-0.903,0.387l0.213-0.725c0.477-0.197,0.914-0.436,1.31-0.716s0.699-0.553,0.907-0.816h0.483
					L331.116,203.074z"/>
				<path style="fill:#407BFF;" d="M333.922,200.064c0.213-0.722,0.458-1.303,0.736-1.743c0.278-0.44,0.599-0.779,0.962-1.018
					s0.767-0.358,1.211-0.358c0.328,0,0.595,0.066,0.804,0.198c0.208,0.132,0.356,0.322,0.444,0.571
					c0.088,0.249,0.125,0.551,0.112,0.908s-0.109,0.838-0.288,1.443c-0.211,0.716-0.455,1.295-0.732,1.735s-0.597,0.78-0.96,1.02
					c-0.364,0.24-0.769,0.36-1.216,0.36c-0.589,0-0.989-0.211-1.2-0.633C333.542,202.038,333.585,201.21,333.922,200.064z
					 M334.693,200.064c-0.295,1.002-0.374,1.669-0.237,2.001c0.137,0.332,0.377,0.498,0.722,0.498s0.683-0.167,1.016-0.5
					c0.333-0.333,0.646-0.999,0.941-1.999c0.296-1.005,0.375-1.673,0.238-2.003c-0.137-0.33-0.381-0.496-0.731-0.496
					c-0.344,0-0.662,0.146-0.953,0.437C335.319,198.374,334.988,199.061,334.693,200.064z"/>
				<path style="fill:#407BFF;" d="M338.666,200.064c0.213-0.722,0.458-1.303,0.736-1.743c0.278-0.44,0.599-0.779,0.962-1.018
					s0.767-0.358,1.211-0.358c0.328,0,0.595,0.066,0.804,0.198c0.208,0.132,0.356,0.322,0.444,0.571
					c0.088,0.249,0.125,0.551,0.112,0.908s-0.109,0.838-0.288,1.443c-0.211,0.716-0.455,1.295-0.732,1.735s-0.597,0.78-0.96,1.02
					c-0.364,0.24-0.769,0.36-1.216,0.36c-0.589,0-0.989-0.211-1.2-0.633C338.286,202.038,338.328,201.21,338.666,200.064z
					 M339.436,200.064c-0.295,1.002-0.374,1.669-0.237,2.001c0.137,0.332,0.377,0.498,0.722,0.498c0.344,0,0.683-0.167,1.016-0.5
					c0.333-0.333,0.646-0.999,0.941-1.999c0.296-1.005,0.375-1.673,0.238-2.003c-0.137-0.33-0.381-0.496-0.731-0.496
					c-0.344,0-0.662,0.146-0.953,0.437C340.063,198.374,339.731,199.061,339.436,200.064z"/>
				<path style="fill:#407BFF;" d="M345.346,203.074h-0.75l1.407-4.777c-0.231,0.172-0.518,0.344-0.862,0.516
					c-0.344,0.172-0.645,0.301-0.903,0.387l0.213-0.725c0.477-0.197,0.914-0.436,1.31-0.716s0.699-0.553,0.907-0.816h0.483
					L345.346,203.074z"/>
				<path style="fill:#407BFF;" d="M348.153,200.064c0.212-0.722,0.458-1.303,0.736-1.743c0.278-0.44,0.599-0.779,0.962-1.018
					s0.767-0.358,1.211-0.358c0.328,0,0.595,0.066,0.804,0.198c0.208,0.132,0.356,0.322,0.444,0.571s0.125,0.551,0.112,0.908
					c-0.013,0.357-0.109,0.838-0.288,1.443c-0.211,0.716-0.455,1.295-0.732,1.735c-0.277,0.44-0.597,0.78-0.96,1.02
					c-0.364,0.24-0.769,0.36-1.216,0.36c-0.589,0-0.989-0.211-1.2-0.633C347.773,202.038,347.815,201.21,348.153,200.064z
					 M348.923,200.064c-0.295,1.002-0.374,1.669-0.237,2.001c0.137,0.332,0.377,0.498,0.722,0.498c0.344,0,0.683-0.167,1.016-0.5
					c0.333-0.333,0.646-0.999,0.941-1.999c0.296-1.005,0.375-1.673,0.238-2.003c-0.137-0.33-0.381-0.496-0.731-0.496
					c-0.344,0-0.662,0.146-0.953,0.437C349.55,198.374,349.218,199.061,348.923,200.064z"/>
			</g>
		</g>
		<g>
			<path style="opacity:0.6;fill:#407BFF;" d="M370.091,174.657l4.353-2.561l-0.737-1.607l7.134-4.346l-1.672-2.458l-10.811-1.77
				c-5.471,8.422-4.911,14.652-3.606,18.089l5.897-3.202L370.091,174.657z"/>
			<path style="opacity:0.6;fill:#407BFF;" d="M383.776,168.647l-7.606,3.301l0.383,2.094l-4.514,1.277l0.246,2.489l-6.232,2.339
				c0.404,1.835,1.094,2.984,1.414,3.265c0.951,0.833,9.891,3.881,19.753-7.589L383.776,168.647z"/>
		</g>
		<g>
			
				<ellipse transform="matrix(0.4689 -0.8833 0.8833 0.4689 38.9853 334.385)" style="fill:#407BFF;" cx="297.528" cy="134.777" rx="8.23" ry="8.23"/>
			<path style="fill:#407BFF;" d="M300.672,126.507c0.879,2.867-0.733,5.903-3.6,6.782c-2.867,0.879-5.903-0.733-6.782-3.6
				c-0.879-2.867,0.733-5.903,3.6-6.782C296.757,122.029,299.793,123.64,300.672,126.507z"/>
			<g>
				<path style="fill:#407BFF;" d="M284.241,135.276c-0.088,0-0.177-0.019-0.262-0.058c-0.311-0.144-0.447-0.514-0.304-0.826
					l1.403-3.034c0.116-0.25,0.378-0.395,0.655-0.355l6.647,0.965c0.34,0.049,0.575,0.365,0.526,0.705
					c-0.049,0.341-0.372,0.575-0.706,0.527l-6.186-0.898l-1.208,2.613C284.701,135.142,284.475,135.276,284.241,135.276z"/>
				<path style="fill:#407BFF;" d="M286.366,141.134c-0.046,0-0.092-0.005-0.138-0.015c-0.335-0.076-0.546-0.409-0.471-0.744
					l0.734-3.261c0.061-0.269,0.291-0.466,0.565-0.484l6.7-0.454c0.332-0.022,0.64,0.236,0.663,0.579
					c0.023,0.343-0.236,0.64-0.579,0.663l-6.237,0.422l-0.632,2.808C286.907,140.937,286.65,141.134,286.366,141.134z"/>
				<path style="fill:#407BFF;" d="M291.645,147.216c-0.217,0-0.428-0.113-0.542-0.315l-1.651-2.906
					c-0.137-0.24-0.099-0.54,0.092-0.739l4.651-4.844c0.238-0.248,0.634-0.255,0.88-0.018c0.248,0.238,0.257,0.632,0.019,0.88
					l-4.33,4.509l1.422,2.503c0.17,0.299,0.065,0.679-0.233,0.849C291.854,147.19,291.749,147.216,291.645,147.216z"/>
			</g>
			<g>
				<path style="fill:#407BFF;" d="M300.637,130.648c-0.169,0-0.337-0.068-0.46-0.203c-0.231-0.254-0.214-0.648,0.041-0.879
					l4.964-4.523c0.202-0.185,0.503-0.215,0.74-0.073l2.862,1.727c0.295,0.177,0.39,0.56,0.212,0.854
					c-0.178,0.294-0.56,0.389-0.854,0.211l-2.465-1.487l-4.621,4.211C300.937,130.595,300.787,130.648,300.637,130.648z"/>
				<path style="fill:#407BFF;" d="M301.749,134.983c-0.215,0-0.423-0.111-0.539-0.309c-0.173-0.297-0.072-0.678,0.225-0.851
					l5.804-3.379c0.239-0.138,0.539-0.104,0.74,0.085l2.435,2.29c0.25,0.236,0.262,0.63,0.026,0.88
					c-0.235,0.25-0.63,0.262-0.88,0.027l-2.096-1.972l-5.402,3.145C301.963,134.956,301.854,134.983,301.749,134.983z"/>
				<path style="fill:#407BFF;" d="M309.021,141.89c-0.321,0-0.594-0.248-0.619-0.574l-0.225-2.87l-6.112-1.308
					c-0.337-0.072-0.551-0.403-0.479-0.739c0.071-0.337,0.407-0.549,0.738-0.478l6.566,1.406c0.27,0.058,0.469,0.285,0.49,0.56
					l0.261,3.333c0.027,0.343-0.229,0.642-0.571,0.669C309.054,141.889,309.038,141.89,309.021,141.89z"/>
			</g>
		</g>
	</g>
</g>
<g id="Character_1_">
	<g>
		<g>
			<path style="fill:#407BFF;" d="M249.316,345.304c-1.262-9.004-9.584-16.303-18.588-16.303h-16.302l-13.458-96.031
				c-1.098-7.837-8.342-14.191-16.18-14.191h-70.902c-7.837,0-13.301,6.354-12.202,14.191l12.397,88.458
				c1.905,13.598,14.474,24.621,28.071,24.621h1.188h73.476h32.605L249.316,345.304z"/>
			<polygon style="fill:#407BFF;" points="192.597,427.909 177.105,427.909 181.126,346.049 188.576,346.049 			"/>
			<polygon style="opacity:0.3;fill:#263238;" points="188.706,348.753 180.92,350.309 181.126,346.049 188.576,346.049 			"/>
			<path style="fill:#407BFF;" d="M206.957,428.938c0,1.418-9.905,1.541-22.124,1.541c-12.218,0-22.123-0.122-22.123-1.541
				s9.905-3.595,22.123-3.595C197.052,425.342,206.957,427.519,206.957,428.938z"/>
		</g>
		<g>
			<g>
				<path style="fill:#263238;" d="M247.742,208.511c-0.754,4.321-1.572,8.584-2.259,12.808c-0.689,4.221-1.295,8.393-1.749,12.465
					c-0.441,4.067-0.724,8.043-0.745,11.771c-0.03,3.72,0.23,7.202,0.765,10.037l-5.858-8.143c0.407,0.725,1.675,1.855,3.41,2.926
					c1.726,1.073,3.867,2.163,6.188,3.167c2.319,1.018,4.833,1.996,7.43,2.956c1.299,0.483,2.623,0.978,3.96,1.436l2.006,0.726
					l0.993,0.372c0.304,0.121,0.701,0.244,0.885,0.376l3.211,2.316c3.913,2.823,4.797,8.283,1.974,12.196
					c-1.188,1.647-2.849,2.758-4.659,3.281l-2.638,0.763l-2.508,0.615c-1.672,0.352-3.354,0.674-5.056,0.917
					c-3.403,0.471-6.875,0.728-10.477,0.651c-3.599-0.08-7.328-0.419-11.283-1.341c-3.944-0.906-8.182-2.367-12.665-5.167
					c-2.467-1.54-4.224-3.788-5.172-6.315l-0.686-1.828c-2.31-6.149-3.435-12.05-4.083-17.714
					c-0.627-5.668-0.732-11.125-0.534-16.448c0.198-5.319,0.719-10.502,1.473-15.582c0.76-5.078,1.714-10.064,2.973-14.939
					c2.483-9.615,12.29-15.397,21.906-12.914c9.124,2.356,14.796,11.308,13.23,20.432L247.742,208.511z"/>
			</g>
			<g style="opacity:0.1;">
				<path style="fill:#FFFFFF;" d="M247.742,208.511c-0.754,4.321-1.572,8.584-2.259,12.808c-0.689,4.221-1.295,8.393-1.749,12.465
					c-0.441,4.067-0.724,8.043-0.745,11.771c-0.03,3.72,0.23,7.202,0.765,10.037l-5.858-8.143c0.407,0.725,1.675,1.855,3.41,2.926
					c1.726,1.073,3.867,2.163,6.188,3.167c2.319,1.018,4.833,1.996,7.43,2.956c1.299,0.483,2.623,0.978,3.96,1.436l2.006,0.726
					l0.993,0.372c0.304,0.121,0.701,0.244,0.885,0.376l3.211,2.316c3.913,2.823,4.797,8.283,1.974,12.196
					c-1.188,1.647-2.849,2.758-4.659,3.281l-2.638,0.763l-2.508,0.615c-1.672,0.352-3.354,0.674-5.056,0.917
					c-3.403,0.471-6.875,0.728-10.477,0.651c-3.599-0.08-7.328-0.419-11.283-1.341c-3.944-0.906-8.182-2.367-12.665-5.167
					c-2.467-1.54-4.224-3.788-5.172-6.315l-0.686-1.828c-2.31-6.149-3.435-12.05-4.083-17.714
					c-0.627-5.668-0.732-11.125-0.534-16.448c0.198-5.319,0.719-10.502,1.473-15.582c0.76-5.078,1.714-10.064,2.973-14.939
					c2.483-9.615,12.29-15.397,21.906-12.914c9.124,2.356,14.796,11.308,13.23,20.432L247.742,208.511z"/>
			</g>
			<path style="fill:#FF8B7B;" d="M285.45,257.692l-1.58-0.334c-5.635-1.19-11.461-1.15-17.079,0.117l-1.973,0.445
				c-2.997,0.676-5.538,2.8-6.492,5.72c-1.542,4.718,1.184,9.768,5.9,10.943c4.683,1.167,9.868,0.641,9.868,0.641l8.211,0.545
				c2.782,0.185,5.289-1.673,5.923-4.388l1.592-6.822C290.544,261.449,288.573,258.352,285.45,257.692z"/>
			<path style="fill:#263238;" d="M169.098,164.611c18.976,1.879,53.183,10.474,69.619,19.828
				c8.113,4.618,11.318,13.541,9.396,22.676c-7.032,33.413-14.34,45.072-14.295,98.602c-8.361,9.506-59.608,18.419-95.893,6.51
				c-5.205-21.657-13.524-74.817-5.081-123.639C135.827,171.341,151.679,162.887,169.098,164.611z"/>
			<path style="fill:#263238;" d="M186.845,174.115c30.112,16.335,37.606,16.467,45.84,7.788c8.233-8.678,19.804-39.353,4.45-53.055
				c-15.354-13.702-48.955-10.33-44.282,0C197.526,139.18,152.799,155.646,186.845,174.115z"/>
			<g>
				<path style="fill:#FFFFFF;" d="M199.855,209.745c-0.053,0-0.105-0.016-0.15-0.051c-0.11-0.083-0.132-0.24-0.049-0.35
					c9.731-12.867,8.07-29.501,8.052-29.667c-0.015-0.137,0.085-0.261,0.223-0.275c0.131-0.015,0.259,0.085,0.275,0.222
					c0.018,0.168,1.703,16.993-8.151,30.022C200.006,209.711,199.93,209.745,199.855,209.745z"/>
				<g>
					<polygon style="fill:#FFFFFF;" points="198.137,210.072 199.94,209.333 199.73,211.271 					"/>
				</g>
			</g>
			<g>
				<path style="fill:#FFFFFF;" d="M227.125,213.609c-0.013,0-0.026-0.001-0.039-0.003c-0.137-0.022-0.229-0.15-0.208-0.286
					c2.334-14.652-0.225-29.047-0.251-29.19c-0.024-0.136,0.066-0.266,0.201-0.291c0.142-0.025,0.266,0.066,0.291,0.201
					c0.026,0.145,2.601,14.619,0.253,29.358C227.352,213.522,227.246,213.609,227.125,213.609z"/>
				<g>
					<polygon style="fill:#FFFFFF;" points="225.891,214.697 227.111,213.178 227.867,214.973 					"/>
				</g>
			</g>
			<path style="opacity:0.2;fill:#FFFFFF;" d="M201.043,283.168c-0.002,0-0.004,0-0.006,0c-0.276-0.003-0.497-0.23-0.494-0.506
				c0.243-19.906,5.101-38.393,9.386-54.703c4.622-17.591,8.613-32.783,5.956-45.451c-0.057-0.27,0.116-0.535,0.387-0.592
				c0.263-0.056,0.535,0.116,0.592,0.387c2.706,12.899-1.313,28.197-5.968,45.91c-4.27,16.255-9.11,34.678-9.353,54.461
				C201.54,282.948,201.316,283.168,201.043,283.168z"/>
			<path style="fill:#FF8B7B;" d="M206.157,142.352c-3.656,11.057-6.359,17.3-3.115,25.412c4.879,12.201,20.204,13.633,27.097,4.139
				c6.204-8.545,11.141-25.191,2.276-34.501C223.68,128.228,209.813,131.295,206.157,142.352z"/>
			<path style="fill:#263238;" d="M222.46,151.402c0.025,0.101,0.024,0.21-0.005,0.317c-0.093,0.333-0.435,0.528-0.765,0.435
				c-3.303-0.928-4.19-3.671-4.227-3.788c-0.103-0.33,0.079-0.681,0.406-0.785c0.326-0.104,0.673,0.077,0.776,0.405l0,0
				c0.029,0.09,0.744,2.222,3.379,2.962C222.248,151.011,222.408,151.19,222.46,151.402z"/>
			<path style="fill:#263238;" d="M206.79,131.335c-0.815,7.508,13.03,16.609,18.25,19.384c-2.583-3.551-2.563-6.426-2.563-6.426
				s5.354,5.5,10.479,6.708c-2.958-3.125-3.042-6.333-3.042-6.333c3.125,1.625,4.958,4.708,5.25,6.444
				c2.167-2.525,6.208-9.583-0.125-16.99C227.014,124.735,207.957,120.585,206.79,131.335z"/>
			<path style="opacity:0.6;" d="M232.051,137.909c-9.315-9.774-24.088-6.512-27.989,5.276c-3.012,9.1-7.291,19.523-5.016,29.25
				c0.162,0.694,0.805,1.08,1.268,1.622c1.161,1.361,3.042,1.364,4.372,0.167c1.33-1.197,1.948-2.969,2.607-4.632
				c3.013-7.611,6.544-9.809,14.328-12.342c5.701-1.855,15.351-2.347,15.42-3.203c0.168-2.1,0.36-5.269-0.128-7.175
				C236.003,143.326,234.482,140.456,232.051,137.909z"/>
			<path style="fill:#FF5652;" d="M225.051,157.427c0,0,1.774,6.133,0.205,9.203c-2.213,0.601-4.397-1.34-4.397-1.34
				L225.051,157.427z"/>
			<path style="fill:#263238;" d="M217.191,155.837c-0.207,1.049,0.174,2.003,0.849,2.133c0.676,0.129,1.391-0.616,1.598-1.665
				c0.207-1.049-0.174-2.003-0.849-2.133C218.113,154.044,217.398,154.789,217.191,155.837z"/>
			<path style="fill:#263238;" d="M228.916,158.614c-0.207,1.049,0.174,2.004,0.849,2.133s1.391-0.616,1.598-1.664
				c0.207-1.049-0.174-2.004-0.849-2.133C229.838,156.82,229.123,157.566,228.916,158.614z"/>
			<path style="fill:#263238;" d="M230.47,153.199c0.159-0.124,0.374-0.168,0.576-0.096c2.561,0.903,4.35-0.453,4.425-0.512
				c0.271-0.211,0.656-0.16,0.861,0.115c0.204,0.275,0.153,0.668-0.116,0.881c-0.099,0.075-2.373,1.84-5.581,0.708
				c-0.32-0.113-0.488-0.472-0.374-0.801C230.302,153.373,230.377,153.272,230.47,153.199z"/>
			<path style="opacity:0.2;" d="M135.674,180.088c-1.329,2.542-2.289,5.373-2.831,8.505c-6.021,34.842-3.513,71.903,0.312,98.136
				C170.194,214.548,173.96,175,135.674,180.088z"/>
			<path style="fill:#FF8B7B;" d="M289.885,391.065c-2.654-0.313-14.676,5.152-14.676,5.152c4.198,15.628,9.706,28.778,9.706,28.778
				l13.659-9.763C298.574,415.231,291.5,400.14,289.885,391.065z"/>
			<g>
				<path style="fill:#263238;" d="M279.023,419.949l3.176,13.664c0.242,1.084,1.396,1.609,2.388,1.133
					c5.389-2.587,11.985-5.978,17.17-8.568c6.063-3.028,10.09-4.274,17.2-7.825c4.299-2.147,3.454-6.938,1.449-6.642
					c-9.629,1.425-15.104,1.878-21.372-1.532c0,0,3.639-5.52,0.379-6.65c-3.26-1.13-10.259,1.463-9.838,4.495
					c0.422,3.032,1.273,4.371,1.273,4.371S280.393,415.649,279.023,419.949z"/>
			</g>
			<path style="fill:#263238;" d="M269.906,393.515c-6.861-25.74-18.027-36.182-19.05-60.977
				c-18.35-3.363-65.489,7.297-71.805-18.622c-2.452-10.064-13.051-22.319-12.195-27.927c15.986-0.039,64.347,0.472,83.59,2.696
				c31.456,3.636,28.372,10.801,31.33,47.783c1.156,14.445,4.076,18.989,7.376,37.54c1.773,9.966,4.563,15.451,4.415,22.494
				c-4.644,7.369-13.974,8.732-18.917,8.346C269.99,403.067,271.31,398.782,269.906,393.515z"/>
			<path style="opacity:0.2;" d="M239.062,297.4l-13.78,34.583c8.343-0.104,16.271-0.439,22.246,0.115
				C250.831,323.049,250.836,303.82,239.062,297.4z"/>
			<path style="fill:#FF8B7B;" d="M227.766,400.694c-2.436-1.43-15.673-1.707-15.673-1.707c-0.988,15.906,0.069,30.144,0.069,30.144
				l16.177-2.891C228.339,426.24,226.406,409.573,227.766,400.694z"/>
			<path style="fill:#263238;" d="M208.139,391.693c1.336-26.605-10.447-34.722,2.226-56.885
				c-18.653-0.347-66.092,5.027-72.408-20.892c-2.452-10.064-4.372-19.471-4.335-24.099c12.253-6.592,59.614-4.815,78.55-0.731
				c30.954,6.677,39.575,6.629,26.783,50.303c-2.369,8.087-2.2,12.006-6.526,39.612c-1.567,10,0.828,20.895-1.465,27.555
				c-2.507,5.972-13.427,4.184-21.858,5.403C202.428,408.403,207.866,397.137,208.139,391.693z"/>
			<g>
				<path style="fill:#263238;" d="M208.145,422.032l-1.337,13.693c-0.115,1.082,0.819,2.055,1.92,2.055
					c5.978,0,13.366-0.203,19.15-0.294c6.763-0.106,6.561,0.514,14.492,0.389c4.795-0.075,5.521-4.76,3.51-5.36
					c-9.658-2.883-10.585-4.843-15.485-10.63c0,0,5.244-3.402,2.49-5.831c-2.754-2.43-14.987-2.916-15.554,0
					c-0.567,2.915-0.182,4.491-0.182,4.491S210.83,418.749,208.145,422.032z"/>
			</g>
			<g>
				<path style="fill:#263238;" d="M169.019,194.137l-1.966,6.413c-0.65,2.238-1.351,4.468-1.964,6.712
					c-0.604,2.246-1.267,4.469-1.823,6.698c-0.556,2.227-1.087,4.438-1.588,6.627c-0.967,4.369-1.759,8.669-2.197,12.638
					c-0.241,1.987-0.319,3.853-0.36,5.542c-0.036,1.681,0.079,3.168,0.191,4.205l-5.306-7.953c1.159,1.188,2.927,2.509,4.895,3.812
					c1.985,1.303,4.21,2.571,6.561,3.809c4.733,2.442,9.905,4.735,15.24,6.878c5.349,2.123,10.843,4.211,16.434,6.161
					c2.793,0.979,5.601,1.978,8.426,2.92l8.39,2.872l0.287,0.098c4.706,1.61,7.215,6.73,5.604,11.436
					c-1.265,3.696-4.712,6.035-8.406,6.089c-1.729,0.022-3.266,0.006-4.882-0.02l-4.774-0.167c-3.172-0.175-6.347-0.379-9.517-0.689
					c-6.338-0.621-12.696-1.468-19.074-2.716c-6.383-1.258-12.808-2.819-19.345-5.063c-3.278-1.117-6.584-2.442-9.963-4.044
					c-3.385-1.613-6.821-3.529-10.402-6.191c-2.333-1.734-3.966-4.061-4.846-6.617l-0.46-1.336c-1.33-3.847-1.98-7.417-2.422-10.803
					c-0.432-3.381-0.572-6.613-0.575-9.708c0.006-3.095,0.171-6.1,0.412-9.034c0.279-2.921,0.617-5.79,1.058-8.606
					c0.877-5.623,2.077-11.064,3.478-16.402c0.728-2.663,1.456-5.315,2.318-7.934c0.423-1.312,0.853-2.626,1.316-3.939l0.72-1.981
					l0.379-1.013l0.444-1.132c3.624-9.238,14.049-13.789,23.287-10.166c8.788,3.447,13.335,13.05,10.638,21.93L169.019,194.137z"/>
				<path style="opacity:0.1;fill:#FFFFFF;" d="M169.019,194.137l-1.966,6.413c-0.65,2.238-1.351,4.468-1.964,6.712
					c-0.604,2.246-1.267,4.469-1.823,6.698c-0.556,2.227-1.087,4.438-1.588,6.627c-0.967,4.369-1.759,8.669-2.197,12.638
					c-0.241,1.987-0.319,3.853-0.36,5.542c-0.036,1.681,0.079,3.168,0.191,4.205l-5.306-7.953c1.159,1.188,2.927,2.509,4.895,3.812
					c1.985,1.303,4.21,2.571,6.561,3.809c4.733,2.442,9.905,4.735,15.24,6.878c5.349,2.123,10.843,4.211,16.434,6.161
					c2.793,0.979,5.601,1.978,8.426,2.92l8.39,2.872l0.287,0.098c4.706,1.61,7.215,6.73,5.604,11.436
					c-1.265,3.696-4.712,6.035-8.406,6.089c-1.729,0.022-3.266,0.006-4.882-0.02l-4.774-0.167c-3.172-0.175-6.347-0.379-9.517-0.689
					c-6.338-0.621-12.696-1.468-19.074-2.716c-6.383-1.258-12.808-2.819-19.345-5.063c-3.278-1.117-6.584-2.442-9.963-4.044
					c-3.385-1.613-6.821-3.529-10.402-6.191c-2.333-1.734-3.966-4.061-4.846-6.617l-0.46-1.336c-1.33-3.847-1.98-7.417-2.422-10.803
					c-0.432-3.381-0.572-6.613-0.575-9.708c0.006-3.095,0.171-6.1,0.412-9.034c0.279-2.921,0.617-5.79,1.058-8.606
					c0.877-5.623,2.077-11.064,3.478-16.402c0.728-2.663,1.456-5.315,2.318-7.934c0.423-1.312,0.853-2.626,1.316-3.939l0.72-1.981
					l0.379-1.013l0.444-1.132c3.624-9.238,14.049-13.789,23.287-10.166c8.788,3.447,13.335,13.05,10.638,21.93L169.019,194.137z"/>
			</g>
			<path style="fill:#FF8B7B;" d="M237.335,263.586l-6.175-1.898c-2.454-0.754-5.041-0.97-7.586-0.633l-7.063,0.936
				c-3.277,0.434-6.01,2.718-7.02,5.865l0,0c-1.401,4.363,0.856,9.14,5.185,10.643c4.559,1.583,9.771,1.526,9.771,1.526l8.128,1.282
				c2.755,0.434,5.419-1.19,6.295-3.838l2.199-6.651C242.07,267.786,240.386,264.524,237.335,263.586z"/>
			<path style="opacity:0.2;fill:#FFFFFF;" d="M142.734,313.116c-0.05,0-0.1-0.008-0.151-0.024
				c-0.263-0.083-0.408-0.363-0.325-0.626c0.336-1.072,9.153-26.226,90.628-24.377c0.275,0.006,0.494,0.235,0.488,0.511
				c-0.006,0.276-0.251,0.492-0.512,0.488c-80.482-1.827-89.569,23.423-89.651,23.679
				C143.142,312.98,142.946,313.116,142.734,313.116z"/>
			<path style="fill:#263238;" d="M231.957,126.033c4.066,1.867,10.34,10.157,10.833,14.638c0.722,6.563-1.706,9.692-6.917,5.08
				c-7.25-6.417-17.75-6.5-22.667,2.417c-4.917,8.917-4.857,35.493-13.839,25.576c-8.982-9.917-7.812-33.21-3.661-42.493
				C200.283,121.018,215.374,118.418,231.957,126.033z"/>
		</g>
	</g>
	<g>
		<path style="fill:#263238;" d="M220.336,151.791c-0.025,0-0.05-0.002-0.075-0.007c-5.465-1.104-6.795-5.234-6.849-5.41
			c-0.061-0.198,0.05-0.407,0.247-0.468c0.197-0.061,0.408,0.049,0.469,0.247c0.049,0.158,1.269,3.883,6.28,4.896
			c0.203,0.041,0.334,0.239,0.293,0.442C220.667,151.668,220.511,151.791,220.336,151.791z"/>
	</g>
</g>
<g id="Table">
	<g>
		<g>
			<rect x="211.402" y="272.33" width="49.05" height="2.357"/>
			<polygon points="260.452,274.686 274.903,225.637 272.546,225.637 258.095,274.686 			"/>
			<polygon style="fill:#263238;" points="339.233,225.637 274.903,225.637 260.452,274.686 324.782,274.686 			"/>
			<g>
				<path style="fill:#FFFFFF;" d="M312.099,242.99c-1.254,4.255-6.811,7.704-12.414,7.704s-9.128-3.449-7.874-7.704
					c1.254-4.255,6.811-7.704,12.414-7.704C309.827,235.285,313.353,238.735,312.099,242.99z"/>
				<polygon style="fill:#FFFFFF;" points="302.979,257.82 292.193,257.82 296.982,247.612 304.205,247.612 				"/>
				
					<ellipse transform="matrix(0.9988 -0.0498 0.0498 0.9988 -12.0583 15.2557)" style="fill:#FFFFFF;" cx="300.026" cy="249.538" rx="7.761" ry="2.932"/>
				<path style="fill:#263238;" d="M296.067,241.816c-0.643,0.977-0.458,2.056,0.414,2.412c0.872,0.355,2.1-0.148,2.743-1.124
					L296.067,241.816z"/>
				<path style="fill:#263238;" d="M304.61,243.148c0.068,0.977,0.999,1.48,2.081,1.125c1.082-0.355,1.903-1.435,1.836-2.412
					L304.61,243.148z"/>
			</g>
		</g>
		<g>
			<g>
				<rect x="172.706" y="274.686" style="fill:#407BFF;" width="160.76" height="11.3"/>
				<rect x="172.706" y="274.686" style="opacity:0.3;fill:#263238;" width="59.072" height="11.3"/>
			</g>
			<polygon style="fill:#407BFF;" points="258.207,438.116 247.964,438.116 250.623,285.986 255.548,285.986 			"/>
			<polygon style="opacity:0.3;fill:#263238;" points="255.635,291.011 250.487,293.903 250.623,285.986 255.548,285.986 			"/>
			<path style="fill:#407BFF;" d="M275.209,439.143c0,1.418-9.905,1.541-22.123,1.541c-12.218,0-22.123-0.122-22.123-1.541
				c0-1.418,9.905-3.595,22.123-3.595C265.304,435.548,275.209,437.725,275.209,439.143z"/>
		</g>
	</g>
</g>
</svg>
